<svg width="285" height="181" viewBox="0 0 285 181" fill="none" xmlns="http://www.w3.org/2000/svg">
<g opacity="0.5">
<path d="M75.7419 146.576L63.0211 154.311L75.7419 162.046L63.0211 169.781L50.3003 161.982L63.0211 154.247L50.3003 146.576L63.0211 138.841L75.7419 146.576ZM62.9534 172.231L75.6742 164.496L88.395 172.231L75.6742 179.966L62.9534 172.231ZM75.7419 161.982L88.4627 154.247L75.7419 146.576L88.395 138.841L101.116 146.576L88.395 154.311L101.116 162.046L88.395 169.781L75.7419 161.982ZM111.062 146.576H121.347C127.911 146.576 133.324 150.186 133.324 158.437V160.177C133.324 168.492 128.249 172.231 121.55 172.231H111.062V146.576ZM116.814 151.217V167.525H121.212C124.933 167.525 127.437 165.205 127.437 160.048V158.695C127.437 153.538 124.798 151.217 121.009 151.217H116.814ZM136.369 151.475H140.97L141.714 156.31C142.594 153.022 144.827 151.282 148.886 151.282H150.307V156.825H147.939C143.27 156.825 142.12 158.372 142.12 162.755V172.295H136.436V151.475H136.369ZM151.458 162.304V161.724C151.458 154.763 156.126 150.96 162.487 150.96C168.983 150.96 173.516 154.763 173.516 161.724V162.304C173.516 169.137 169.118 172.811 162.487 172.811C155.45 172.747 151.458 169.137 151.458 162.304ZM167.697 162.24V161.724C167.697 157.857 165.667 155.536 162.419 155.536C159.239 155.536 157.141 157.663 157.141 161.724V162.24C157.141 165.978 159.171 168.106 162.419 168.106C165.667 168.041 167.697 165.978 167.697 162.24ZM176.493 151.475H181.23L181.771 155.407C182.921 152.764 185.357 150.96 188.943 150.96C194.492 150.96 198.146 154.763 198.146 161.789V162.369C198.146 169.201 194.086 172.811 188.943 172.811C185.493 172.811 183.124 171.328 181.974 168.944V179.45H176.426L176.493 151.475ZM192.394 162.24V161.789C192.394 157.663 190.161 155.601 187.184 155.601C184.004 155.601 181.906 157.921 181.906 161.789V162.175C181.906 165.85 183.936 168.17 187.117 168.17C190.364 168.106 192.394 166.107 192.394 162.24ZM206.536 168.428L206.062 172.231H201.191V144.514H206.739V155.149C207.957 152.442 210.393 150.96 213.844 150.96C219.054 151.024 222.911 154.44 222.911 161.337V161.982C222.911 168.879 219.257 172.811 213.708 172.811C210.055 172.747 207.686 171.135 206.536 168.428ZM217.092 161.982V161.466C217.092 157.663 214.926 155.536 211.881 155.536C208.769 155.536 206.604 157.921 206.604 161.531V161.982C206.604 165.85 208.701 168.106 211.814 168.106C215.129 168.106 217.092 166.107 217.092 161.982ZM225.347 162.304V161.724C225.347 154.763 230.015 150.96 236.376 150.96C242.871 150.96 247.405 154.763 247.405 161.724V162.304C247.405 169.137 242.939 172.811 236.376 172.811C229.339 172.747 225.347 169.137 225.347 162.304ZM241.654 162.24V161.724C241.654 157.857 239.624 155.536 236.376 155.536C233.196 155.536 231.098 157.663 231.098 161.724V162.24C231.098 165.978 233.128 168.106 236.376 168.106C239.624 168.041 241.654 165.978 241.654 162.24ZM254.848 161.466L247.202 151.475H253.765L258.164 157.728L262.629 151.475H269.125L261.344 161.402L269.531 172.231H263.103L258.096 165.334L253.224 172.231H246.525L254.848 161.466Z" fill="black"/>
</g>
</svg>
