<svg xmlns="http://www.w3.org/2000/svg" viewBox="0 0 1084.36 191.56"><defs><style>.cls-1{fill:#51459e;}</style></defs><g id="Layer_2" data-name="Layer 2"><g id="Layer_1-2" data-name="Layer 1"><path class="cls-1" d="M0,188.78c4.78-11.89,9.23-23,13.73-34.13Q43.16,82.07,72.57,9.5c3.33-8.24,3.27-8.26,12-8.26,9.68,0,19.38.15,29.06-.08,4-.09,6.17,1.1,7.76,5.06q24.9,62.25,50.16,124.35,10.77,26.64,21.5,53.3c.6,1.47,1.09,3,1.78,4.92-11.77,0-23.07.12-34.35-.16-1.32,0-3.16-2.09-3.77-3.6-4.08-10.15-8-20.37-11.73-30.66-1.28-3.54-2.91-5.13-7-5.1q-40.57.31-81.16,0c-3.78,0-5.42,1.26-6.65,4.76-3.58,10.14-7.69,20.11-11.38,30.21-1.24,3.39-3,4.74-6.81,4.62C21.7,188.58,11.47,188.78,0,188.78Zm131.57-69.06L98.44,33.35l-2,.29L63.41,119.72Z"/><path class="cls-1" d="M503,157c0,8.94-.28,16.91.11,24.84.26,5.25-.83,7.54-6.8,7.1-8.35-.61-16.77-.15-26.05-.15v-5.94c0-58.46.07-116.92-.13-175.37,0-5.25,1.58-6.57,6.47-6.32,6.92.37,13.89.32,20.82,0,4.38-.2,5.69,1.39,5.66,5.66-.17,21.56-.08,43.11-.08,64.67v6.22l1.45.27a44.44,44.44,0,0,0,2.42-3.86c12.91-26,35.57-33.25,62.53-28.5,26.53,4.68,41.47,22.43,47.6,47.74,4.9,20.26,4.28,40.64-3.38,60.24-10.38,26.55-32.12,38.28-58.92,37.69-22.29-.5-38.47-11-48.42-31a13,13,0,0,0-1.13-1.86A13.65,13.65,0,0,0,503,157Zm41.93,6.4c20.47,0,34.94-10.19,39.71-29.2a74,74,0,0,0,1.67-21.63c-1.28-24-12.81-36.84-36.52-40.33-16.43-2.42-36.67,5.32-43.27,24.34-2.74,7.88-3.28,16.8-3.35,25.26C503,146.38,520.37,163.36,544.93,163.38Z"/><path class="cls-1" d="M671.79,127.56c1.36,13.29,6.59,23.17,17.63,29.52,15.18,8.73,43.91,10.19,60.16-5,3.82-3.58,7-7.79,10.95-12.19,5.57,6.92,11.27,13.74,16.57,20.86.7.93-.15,3.75-1.12,5.09-8.73,12.12-21,19.37-35.16,22.61-24.57,5.61-48.7,4.11-71-8.85-18.48-10.74-28-27.58-30.94-48.47-2.37-16.84-1-33.23,6.75-48.53,12.09-23.68,32.25-35.65,58.19-37.91,18.08-1.57,35.39,1.44,50.11,13.13,13.62,10.81,20.59,25.38,22.3,42.41.73,7.23.1,14.59.31,21.89.13,4.18-1.74,5.15-5.64,5.13-30.5-.13-61-.08-91.51-.06C677.07,127.16,674.75,127.4,671.79,127.56Zm72.45-24.38c1-14.54-4.8-24.63-17.62-29.75s-25.53-4.21-37.5,2.27c-10.53,5.71-15.09,15.55-17,27.48Z"/><path class="cls-1" d="M816.21,96.3c-5.42-7.46-10.7-14.4-15.49-21.67-.71-1.07.38-4.18,1.57-5.53,14.1-16,32.44-23.39,53.23-24.37A118,118,0,0,1,885.42,47c21.13,4.51,33.23,19,34.56,41,1,17.12.71,34.33,1,51.49,0,3.84-.15,7.69.06,11.51.44,8.13,5.37,11.84,13.29,10.18,1.22-.25,2.43-.57,4.6-1.09.8,8.55,1.67,16.77,2.2,25,0,.79-1.84,2.21-3,2.5-21.49,5.23-42.86,1-46.89-26.24a58.54,58.54,0,0,0-1.77-6.27c-3.29,6.73-5.58,12.69-8.92,18-8.66,13.76-22.29,18.33-37.62,18.31-12.93,0-25.79-1.74-35.68-11.27-12.79-12.3-15.65-27.72-11.66-44.38s16.14-25.36,31.86-28.93c13.3-3,27-4.42,40.43-6.8a64,64,0,0,0,13.09-3.74c4.74-2,7.51-5.76,7.15-11.21s-3-9.72-8.15-11.23c-20.59-6-38.94-1.55-54.78,12.87C822.19,89.33,819.69,92.51,816.21,96.3Zm72.71,20.38c-5.75,2-10.74,4.21-16,5.4-10.64,2.43-21.49,4-32.11,6.5-8.46,2-13.06,7.71-13.6,15.09-.72,10,2.55,16.46,11.11,19.85,12.43,4.91,33.71,2.17,43.13-11.29C889,141.51,889.51,129.5,888.92,116.68Z"/><path class="cls-1" d="M992.28,109a51.81,51.81,0,0,0,4.56-3.14c17.33-15.71,32.68-32.92,41.9-54.85.61-1.45,2.3-3.47,3.52-3.5,10.7-.27,21.4-.16,33.1-.16-10.83,27.21-28,48.27-49.87,66.78a452.52,452.52,0,0,1,58.87,74.64c-13.17,0-25.16.15-37.13-.18-1.63,0-3.51-2.25-4.74-3.87q-22.23-29.18-44.26-58.49c-1.31-1.74-2.33-3.7-3.49-5.56l-2.19,1.4c-.09,1.87-.26,3.74-.26,5.61,0,18.65-.12,37.3.07,55.94,0,4-1.06,5.41-5.24,5.27-8.92-.32-17.86-.1-27.57-.1v-6.12c0-58.31.08-116.62-.12-174.93,0-5.41,1.59-6.92,6.78-6.6a178.18,178.18,0,0,0,20.28,0c4.65-.23,5.89,1.53,5.87,6-.15,31.44-.08,62.88-.08,94.32Z"/><path class="cls-1" d="M386.79,13.5c0,9.59.16,18.9-.07,28.19-.1,3.85,1.17,5,5,5,15.17-.19,30.33-.09,45.5-.07,1.95,0,3.91.16,6.18.26V74H424.15c-10.6,0-21.2.19-31.79-.09-4.35-.11-5.7,1.25-5.65,5.61.2,19.18,0,38.36.1,57.55.08,22.1,17.25,32.83,37.49,23.16,5-2.38,9.24-6.27,14.64-10,4,7,8.56,14.57,12.62,22.37.54,1-.87,4.08-2.18,4.89-6.47,4-12.87,8.51-19.95,10.93-12.85,4.4-26.29,3.77-39.5,1-22.67-4.72-33.56-20.33-34.8-42.5s-.91-44.53-.95-66.8c0-4.77-1.23-6.59-6.15-6.2s-10.16.09-16,.09c0-8.65-.1-16.81.15-25,0-.84,2.16-2.22,3.39-2.32a74.46,74.46,0,0,1,12-.05c4.86.44,7-.93,6.53-6.24a112.63,112.63,0,0,1,0-16.43c.09-1.6,1.42-4.23,2.62-4.5C366.57,17.28,376.41,15.51,386.79,13.5Z"/><path class="cls-1" d="M213.62,47.6h31.51V79.41l1.43.39c.75-1.82,1.6-3.6,2.23-5.46,8-23.66,27.59-34.62,50.5-28.29,11.59,3.2,22.63,17.56,22.56,29.57a5.27,5.27,0,0,1-1.66,3.66c-7.62,5.92-15.37,11.67-23.65,17.9-.73-2.36-1.4-4.14-1.81-6-2.9-13-9.44-19.27-20.61-19.77-12-.53-22.22,6.49-25.35,18.36a80.59,80.59,0,0,0-2.68,19.41c-.31,24.12-.12,48.25-.12,72.38v6.83H213.62Z"/><rect class="cls-1" x="959.35" width="33.25" height="189.14"/><rect class="cls-1" x="469.93" y="0.81" width="33.35" height="188.98"/><rect class="cls-1" x="331.26" y="45.9" width="113.83" height="29.02"/><polyline class="cls-1" points="352.57 45.9 352.57 20.53 388.18 13.15 388.18 45.9 445.09 45.9"/><polygon class="cls-1" points="194.97 188.79 98.99 33.33 76.08 1.1 119.14 1.1 194.97 188.79"/><polygon class="cls-1" points="0 188.79 92.79 33.33 111.86 1.1 76.02 1.1 0 188.79"/><polygon class="cls-1" points="0 188.79 37.57 188.79 97.97 31.89 156.67 188.79 194.97 188.79 115.35 12.69 76.08 12.69 0 188.79"/></g></g></svg>