<svg width="220" height="42" viewBox="0 0 220 42" fill="none" xmlns="http://www.w3.org/2000/svg">
<path d="M25.7419 8.57635L13.0211 16.3114L25.7419 24.0464L13.0211 31.7815L0.300293 23.982L13.0211 16.2469L0.300293 8.57635L13.0211 0.841309L25.7419 8.57635ZM12.9534 34.2309L25.6742 26.4959L38.395 34.2309L25.6742 41.966L12.9534 34.2309ZM25.7419 23.982L38.4627 16.2469L25.7419 8.57635L38.395 0.841309L51.1158 8.57635L38.395 16.3114L51.1158 24.0464L38.395 31.7815L25.7419 23.982ZM61.0624 8.57635H71.3473C77.9107 8.57635 83.3238 12.186 83.3238 20.4367V22.1771C83.3238 30.4923 78.249 34.2309 71.5503 34.2309H61.0624V8.57635ZM66.8138 13.2174V29.5254H71.212C74.9335 29.5254 77.437 27.2049 77.437 22.0482V20.6946C77.437 15.5379 74.7981 13.2174 71.009 13.2174H66.8138ZM86.3687 13.4752H90.9698L91.7141 18.3096C92.5937 15.0222 94.8266 13.2818 98.8865 13.2818H100.307V18.8253H97.9392C93.2704 18.8253 92.1201 20.3723 92.1201 24.7555V34.2954H86.4363V13.4752H86.3687ZM101.458 24.3043V23.7241C101.458 16.7626 106.126 12.9595 112.487 12.9595C118.983 12.9595 123.516 16.7626 123.516 23.7241V24.3043C123.516 31.1369 119.118 34.811 112.487 34.811C105.45 34.7466 101.458 31.1369 101.458 24.3043ZM117.697 24.2398V23.7241C117.697 19.8566 115.667 17.5361 112.419 17.5361C109.239 17.5361 107.141 19.6632 107.141 23.7241V24.2398C107.141 27.9784 109.171 30.1056 112.419 30.1056C115.667 30.0411 117.697 27.9784 117.697 24.2398ZM126.493 13.4752H131.23L131.771 17.4072C132.921 14.7644 135.357 12.9595 138.943 12.9595C144.492 12.9595 148.146 16.7626 148.146 23.7886V24.3687C148.146 31.2014 144.086 34.811 138.943 34.811C135.493 34.811 133.124 33.3285 131.974 30.9435V41.4503H126.426L126.493 13.4752ZM142.394 24.2398V23.7886C142.394 19.6632 140.161 17.6006 137.184 17.6006C134.004 17.6006 131.906 19.9211 131.906 23.7886V24.1754C131.906 27.8495 133.936 30.17 137.117 30.17C140.364 30.1056 142.394 28.1073 142.394 24.2398ZM156.536 30.4278L156.062 34.2309H151.191V6.51367H156.739V17.1494C157.957 14.4421 160.393 12.9595 163.844 12.9595C169.054 13.024 172.911 16.4403 172.911 23.3374V23.982C172.911 30.8791 169.257 34.811 163.708 34.811C160.055 34.7466 157.686 33.1351 156.536 30.4278ZM167.092 23.982V23.4663C167.092 19.6632 164.926 17.5361 161.881 17.5361C158.769 17.5361 156.604 19.9211 156.604 23.5308V23.982C156.604 27.8495 158.701 30.1056 161.814 30.1056C165.129 30.1056 167.092 28.1073 167.092 23.982ZM175.347 24.3043V23.7241C175.347 16.7626 180.015 12.9595 186.376 12.9595C192.871 12.9595 197.405 16.7626 197.405 23.7241V24.3043C197.405 31.1369 192.939 34.811 186.376 34.811C179.339 34.7466 175.347 31.1369 175.347 24.3043ZM191.654 24.2398V23.7241C191.654 19.8566 189.624 17.5361 186.376 17.5361C183.196 17.5361 181.098 19.6632 181.098 23.7241V24.2398C181.098 27.9784 183.128 30.1056 186.376 30.1056C189.624 30.0411 191.654 27.9784 191.654 24.2398ZM204.848 23.4663L197.202 13.4752H203.765L208.164 19.7277L212.629 13.4752H219.125L211.344 23.4018L219.531 34.2309H213.103L208.096 27.3338L203.224 34.2309H196.525L204.848 23.4663Z" fill="black"/>
</svg>
