<svg width="153" height="28" viewBox="0 0 153 28" fill="none" xmlns="http://www.w3.org/2000/svg">
<g opacity="0.5" clip-path="url(#clip0_1963_388)">
<path fill-rule="evenodd" clip-rule="evenodd" d="M21.8528 15.3922H21.7856L17.7992 0H12.9953L8.94168 15.2052H8.87683L5.18437 0H0.0541992L6.22838 22.3359H11.4258L15.315 7.13413H15.3823L19.3365 22.3359H24.4367L30.708 0H25.6775L21.8528 15.3922ZM46.3624 7.55646C45.9085 6.98324 45.2812 6.53417 44.4838 6.21026C43.689 5.88872 42.6723 5.72846 41.4291 5.72846C40.5566 5.72846 39.6652 5.94018 38.7505 6.36702C37.8335 6.79386 37.081 7.47915 36.4938 8.41961H36.396V0H31.7546V22.3359H36.396V13.8578C36.396 12.2158 36.6776 11.0275 37.2458 10.3082C37.8091 9.59257 38.728 9.22871 39.9915 9.22871C41.1028 9.22871 41.8725 9.55747 42.3112 10.2169C42.7468 10.872 42.9662 11.8683 42.9662 13.2029V22.3358H47.6058V12.3888C47.6058 11.39 47.5141 10.4766 47.3265 9.64855C47.145 8.82896 46.8231 8.13295 46.3624 7.55646ZM65.4851 18.7396V10.327C65.4851 9.34338 65.256 8.55629 64.7949 7.96219C64.3433 7.36922 63.7513 6.90616 63.036 6.57051C62.3162 6.23836 61.5208 6.01264 60.647 5.89797C59.7771 5.78568 58.915 5.72846 58.0653 5.72846C57.1311 5.72846 56.197 5.81502 55.2695 5.99391C54.3452 6.17166 53.5106 6.46758 52.7707 6.88279C52.0303 7.30252 51.4175 7.85588 50.9422 8.54229C50.4589 9.22882 50.1871 10.0955 50.1222 11.1364H54.7667C54.8485 10.2639 55.1577 9.63467 55.6837 9.2628C56.2018 8.88618 56.9191 8.69906 57.8386 8.69906C58.2522 8.69906 58.6358 8.72468 58.9976 8.77625C59.3555 8.82896 59.6726 8.93415 59.9488 9.08854C60.2183 9.24643 60.4375 9.46391 60.5994 9.74697C60.7638 10.0265 60.8408 10.4078 60.8408 10.8873C60.8652 11.3469 60.7242 11.6954 60.4192 11.934C60.1107 12.1773 59.697 12.3586 59.179 12.4825C58.653 12.6076 58.0554 12.7013 57.3772 12.7644C56.6889 12.8294 56.0028 12.9132 55.3196 13.0159C54.6219 13.1188 53.9321 13.2603 53.2435 13.4357C52.5588 13.6147 51.9485 13.879 51.415 14.2357C50.8792 14.59 50.4412 15.0637 50.1021 15.659C49.7679 16.2531 49.6012 17.011 49.6012 17.929C49.6012 18.7617 49.7458 19.481 50.0421 20.0845C50.3367 20.6904 50.7448 21.1919 51.2683 21.5873C51.7889 21.9826 52.4041 22.2762 53.1 22.4657C53.7947 22.6504 54.5474 22.7463 55.352 22.7463C56.3979 22.7463 57.4249 22.5988 58.4239 22.3077C59.4252 22.0119 60.3001 21.5065 61.0406 20.7721C61.0617 21.0403 61.0999 21.3071 61.1548 21.5709C61.2074 21.8305 61.2794 22.0878 61.3668 22.3358H66.0731C65.8536 22.0046 65.7015 21.5065 65.6124 20.8352C65.5269 20.1396 65.4844 19.4399 65.4851 18.7396ZM60.8408 16.081C60.8408 16.3315 60.8164 16.666 60.7638 17.0822C60.7087 17.4997 60.5616 17.9103 60.3203 18.3151C60.0782 18.7231 59.7069 19.074 59.2059 19.364C58.708 19.6553 57.998 19.8037 57.0883 19.8037C56.7248 19.8033 56.3621 19.7716 56.0046 19.7089C55.6557 19.6458 55.352 19.5359 55.093 19.3815C54.8284 19.226 54.6219 19.012 54.468 18.7396C54.3208 18.4683 54.2383 18.135 54.2383 17.7384C54.2383 17.3232 54.3208 16.9782 54.468 16.7057C54.6219 16.4368 54.8234 16.2122 55.0759 16.0356C55.3221 15.859 55.6184 15.7163 55.9599 15.6109C56.294 15.5068 56.6374 15.4251 56.9862 15.3606C57.3577 15.3012 57.7267 15.2484 58.0975 15.2051C58.4691 15.1629 58.8247 15.1104 59.1619 15.0472C59.4823 14.9895 59.7985 14.9117 60.1083 14.8145C60.3997 14.7186 60.647 14.5899 60.8408 14.4238V16.081ZM74.1431 1.31573H69.504V6.16466H66.6961V9.13301H69.504V18.6787C69.504 19.4938 69.6464 20.1476 69.9274 20.6469C70.2139 21.1487 70.5952 21.5372 71.0913 21.8061C71.5794 22.0763 72.1476 22.2599 72.7904 22.3558C73.4306 22.447 74.1113 22.4938 74.831 22.4938C75.2915 22.4938 75.7578 22.4844 76.2386 22.4658C76.7145 22.4412 77.1508 22.4025 77.5441 22.336V18.8974C77.3166 18.9396 77.087 18.9708 76.8562 18.9909C76.6198 19.012 76.3681 19.0214 76.1067 19.0214C75.3216 19.0214 74.7961 18.8974 74.5364 18.6448C74.2804 18.3968 74.1431 17.895 74.1431 17.142V9.13301H77.5441V6.16466H74.1431V1.31573ZM93.3305 15.253C93.0288 14.7408 92.6205 14.314 92.1221 13.9677C91.6192 13.625 91.0456 13.3503 90.4059 13.1397C89.7627 12.9304 89.1021 12.7572 88.4271 12.6075C87.786 12.4653 87.1432 12.3301 86.4989 12.2018C85.8688 12.0766 85.3026 11.9339 84.8151 11.7818C84.3239 11.6239 83.9297 11.4182 83.6238 11.1714C83.3171 10.9176 83.1655 10.5983 83.1655 10.1983C83.1655 9.86378 83.2522 9.60183 83.4313 9.40071C83.5989 9.20535 83.8149 9.05333 84.0625 8.94814C84.3159 8.84284 84.5904 8.77614 84.8971 8.74341C85.2063 8.71531 85.488 8.69895 85.7462 8.69895C86.5784 8.69895 87.2931 8.84747 87.9071 9.15389C88.515 9.4568 88.8534 10.0334 88.9208 10.8872H93.3305C93.2431 9.88838 92.9794 9.05807 92.5308 8.39953C92.0824 7.74347 91.5215 7.21596 90.8495 6.82061C90.1744 6.42537 89.4039 6.14356 88.542 5.97743C87.6776 5.80904 86.7927 5.72834 85.8813 5.72834C84.9618 5.72834 84.0699 5.80441 83.1999 5.96219C82.3255 6.11783 81.5429 6.38801 80.8458 6.77276C80.1506 7.15987 79.5872 7.68376 79.1614 8.35156C78.7351 9.02173 78.5261 9.87676 78.5261 10.9176C78.5261 11.6287 78.6825 12.2298 78.9843 12.7175C79.2856 13.2121 79.6924 13.6146 80.1905 13.9374C80.6915 14.2614 81.2644 14.5244 81.9072 14.7186C82.5565 14.9202 83.215 15.0938 83.8806 15.2389C85.5423 15.5675 86.8328 15.902 87.76 16.2389C88.6845 16.5698 89.1476 17.0704 89.1476 17.7382C89.1476 18.1348 89.0479 18.4633 88.8537 18.723C88.6608 18.9822 88.4094 19.1965 88.1181 19.3499C87.825 19.5078 87.4956 19.6225 87.1371 19.6938C86.7784 19.7651 86.4343 19.8037 86.1107 19.8037C85.65 19.8037 85.2065 19.7511 84.7848 19.646C84.3567 19.543 83.9826 19.3815 83.6558 19.1593C83.3301 18.9418 83.0633 18.6635 82.8544 18.3151C82.6521 17.9723 82.5452 17.5618 82.5452 17.0822H78.1298C78.1775 18.1675 78.4292 19.0692 78.8996 19.7885C79.3713 20.5043 79.9664 21.0867 80.6988 21.5253C81.4314 21.9639 82.2636 22.2762 83.2001 22.4657C84.1461 22.6525 85.1095 22.7466 86.0754 22.7463C87.0352 22.7463 87.9743 22.6549 88.9039 22.4797C89.8302 22.3031 90.6525 21.9942 91.3675 21.5534C92.0902 21.1147 92.6712 20.537 93.1172 19.8177C93.5631 19.0996 93.7868 18.2073 93.7868 17.1419C93.7863 16.3935 93.6372 15.7631 93.3305 15.253ZM102.547 0L93.727 22.3359H98.8866L100.716 17.3606H109.441L111.208 22.3359H116.534L107.809 0H102.547ZM102.059 13.7035L105.096 5.50849H105.163L108.103 13.7035H102.059ZM132.582 8.35167C131.955 7.56109 131.158 6.92602 130.198 6.44411C129.239 5.96704 128.093 5.72846 126.765 5.72846C125.718 5.72846 124.761 5.92371 123.89 6.32256C123.018 6.71666 122.3 7.35286 121.732 8.22775H121.669V6.16466H117.254V28H121.899V20.336H121.959C122.522 21.1289 123.252 21.7288 124.133 22.1335C125.016 22.5406 125.983 22.7466 127.026 22.7466C128.27 22.7466 129.352 22.515 130.275 22.0553C131.207 21.5969 131.977 20.9817 132.6 20.2086C133.221 19.4391 133.679 18.5549 133.991 17.5525C134.294 16.5514 134.444 15.507 134.444 14.424C134.444 13.2744 134.294 12.1774 133.991 11.1225C133.679 10.0686 133.216 9.147 132.582 8.35167ZM129.61 16.2063C129.478 16.832 129.256 17.3795 128.937 17.8483C128.621 18.3152 128.21 18.7021 127.695 18.991C127.186 19.2822 126.543 19.4272 125.785 19.4272C125.044 19.4272 124.415 19.2822 123.89 18.991C123.381 18.7119 122.95 18.32 122.632 17.8483C122.315 17.3795 122.086 16.832 121.946 16.2063C121.802 15.5831 121.733 14.9432 121.733 14.2987C121.733 13.6274 121.795 12.983 121.929 12.3587C122.061 11.733 122.282 11.1809 122.601 10.6979C122.91 10.2219 123.329 9.83014 123.843 9.52723C124.353 9.22668 124.989 9.07229 125.753 9.07229C126.494 9.07229 127.121 9.22668 127.632 9.52723C128.143 9.83014 128.563 10.2243 128.887 10.7166C129.221 11.2066 129.451 11.7645 129.593 12.389C129.735 13.0165 129.806 13.6567 129.805 14.2987C129.806 14.9392 129.74 15.5781 129.61 16.2063ZM152.488 11.1224C152.179 10.0686 151.715 9.147 151.082 8.35167C150.447 7.56109 149.658 6.92602 148.698 6.44411C147.736 5.96704 146.593 5.72846 145.262 5.72846C144.221 5.72846 143.257 5.92371 142.387 6.32256C141.517 6.71666 140.797 7.35286 140.229 8.22775H140.167V6.16466H135.752V28H140.394V20.336H140.459C141.024 21.1289 141.754 21.7288 142.633 22.1335C143.515 22.5406 144.48 22.7466 145.529 22.7466C146.767 22.7466 147.851 22.515 148.776 22.0553C149.702 21.5969 150.476 20.9817 151.098 20.2086C151.723 19.4391 152.178 18.5549 152.488 17.5525C152.794 16.5514 152.946 15.507 152.946 14.424C152.946 13.2743 152.794 12.1773 152.488 11.1224ZM148.105 16.2063C147.978 16.832 147.751 17.3795 147.434 17.8483C147.124 18.3152 146.704 18.7021 146.194 18.991C145.683 19.2822 145.045 19.4272 144.283 19.4272C143.546 19.4272 142.907 19.2822 142.387 18.991C141.863 18.7021 141.448 18.3152 141.131 17.8483C140.814 17.3795 140.583 16.832 140.441 16.2063C140.299 15.5795 140.229 14.94 140.23 14.2987C140.23 13.6274 140.297 12.983 140.426 12.3587C140.556 11.733 140.782 11.1809 141.099 10.6979C141.412 10.2219 141.829 9.83014 142.34 9.52723C142.85 9.22668 143.491 9.07229 144.251 9.07229C144.991 9.07229 145.616 9.22668 146.13 9.52723C146.643 9.83014 147.059 10.2243 147.387 10.7166C147.716 11.2066 147.951 11.7645 148.09 12.389C148.235 13.016 148.305 13.6509 148.305 14.2987C148.305 14.9431 148.24 15.583 148.105 16.2063Z" fill="black"/>
</g>
<defs>
<clipPath id="clip0_1963_388">
<rect width="153" height="28" fill="white"/>
</clipPath>
</defs>
</svg>
