<svg width="189" height="39" viewBox="0 0 189 39" fill="none" xmlns="http://www.w3.org/2000/svg">
<path d="M24.8 34.05C24.5 33.9 24.2 33.75 23.85 33.65V22.1C23.85 16.15 21.2 11.8 12.9 11.8C5.8 11.8 1.3 15.2 1.25 18.65C1.2 20.25 2.1 21.55 4.1 21.55C6.5 21.55 7.55 20.4 7.9 19.1C8.4 16.9 9.8 15.25 12.7 15.25C15.2 15.25 16.2 16.65 16.2 20.5V23.7C14.3 23.25 12.4 23 10.6 23C4.35 23 0.1 25.85 0.1 31.35C0.1 35.25 3.15 38.65 8.5 38.65C11.35 38.65 14 37.35 16.2 35.35V36.6C16.2 37.35 16.3 38.65 18.3 38.65C20 38.65 22.3 38.1 24.1 37.45C24.75 37.25 25.3 36.95 25.75 36.75C26.35 36.35 26.8 36.05 26.8 35.6C26.8 35 25.95 34.55 24.8 34.05ZM11.25 34.75C8.85 34.75 7.35 32.65 7.35 30.35C7.35 27.65 9.15 25.95 12 25.95C13.65 25.95 14.9 26.2 16.2 26.75V32C15.05 33.65 13.3 34.75 11.25 34.75ZM45.9668 11.8C43.0668 11.8 40.8668 13.4 38.7168 17.3V13.85C38.7168 13.1 38.6668 11.8 36.6668 11.8C34.4168 11.8 31.0668 12.7 29.3668 13.7C28.7168 14.05 28.2668 14.4 28.2668 14.85C28.2668 15.4 29.1168 15.85 30.2668 16.4L31.0668 16.75V32.3C31.0668 33.85 30.7668 34.95 29.1668 35.45C28.5168 35.7 28.1168 36 28.1168 36.7C28.1168 37.1 28.3168 37.7 28.7168 38H41.8168C42.2668 37.7 42.4168 37.1 42.4168 36.7C42.4168 36 42.0168 35.7 41.4168 35.45C39.2168 34.7 38.7168 33.85 38.7168 32.3V20.45C39.7668 18.8 40.9168 17.9 42.2668 17.9C43.5668 17.9 44.2668 18.7 44.6168 20.35C45.0168 21.7 46.2668 22.2 47.5668 22.2C49.9668 22.2 51.2668 20 51.2668 17.55C51.2668 14.8 49.6668 11.8 45.9668 11.8ZM70.8238 31.5C70.5738 31.5 70.2738 31.55 69.8738 31.75C68.7738 32.3 67.6738 32.65 66.6238 32.65C64.6238 32.65 63.4238 31.25 63.4238 27.9V16.05H69.4238C70.5238 16.05 71.2738 15.45 71.2738 14.2C71.2738 13.05 70.5238 12.45 69.4238 12.45H63.4238V9.4C63.4238 8.15 63.3738 7.05 61.7738 7.05C60.0738 7.05 55.5738 10.5 53.2738 12.55C52.5238 13.25 51.9738 13.95 51.9738 14.6C51.9738 15.5 52.3238 16.05 53.7238 16.05H55.7738V28.8C55.7738 34.8 58.3738 38.65 63.6738 38.65C66.6738 38.65 69.7738 36.85 71.1738 34.45C71.4738 33.85 71.7738 33.25 71.7738 32.6C71.7738 31.95 71.4238 31.5 70.8238 31.5ZM92.0293 11.8C88.7793 11.8 86.2293 13.05 84.2793 15.15V2.9C84.2793 2.15 84.2293 0.849998 82.2293 0.849998C79.9793 0.849998 76.6293 1.75 74.9293 2.75C74.2793 3.15 73.8293 3.45 73.8293 3.9C73.8293 4.5 74.6793 4.95 75.8293 5.45L76.6293 5.8V32.3C76.6293 33.85 76.3293 34.95 74.7293 35.45C74.0793 35.7 73.6793 36 73.6793 36.7C73.6793 37.1 73.8793 37.7 74.2793 38H83.0793V34.75C84.9293 37.2 87.5293 38.65 91.2793 38.65C98.1293 38.65 102.829 33 102.829 25.25C102.829 16.25 98.0793 11.8 92.0293 11.8ZM90.5293 35.1C87.7793 35.1 85.4293 33.15 84.2793 29.8V19.25C85.0793 17.1 86.6293 15.65 89.0293 15.65C93.1793 15.65 95.4293 22.2 95.4293 27.9C95.4293 33 93.2293 35.1 90.5293 35.1ZM127.579 30.7C127.329 30.7 127.079 30.75 126.679 30.95C124.929 31.85 122.929 32.85 119.979 32.85C116.929 32.85 115.029 31.05 113.879 28.45L123.179 25.45C127.279 24.1 128.379 22.1 128.379 19.65C128.379 15.9 124.729 11.8 118.229 11.8C110.329 11.8 105.229 17.05 105.229 25.5C105.229 32.55 109.879 38.65 117.279 38.65C122.579 38.65 125.979 36.55 127.879 33.65C128.229 33.1 128.579 32.5 128.579 31.8C128.579 31.15 128.229 30.7 127.579 30.7ZM117.329 15.25C119.979 15.25 121.429 18 121.429 20.35C121.429 21.65 120.729 22.55 119.329 23.05L112.929 25.15C112.679 23.85 112.529 22.45 112.529 21.05C112.529 17.65 114.029 15.25 117.329 15.25ZM155.464 34.05C155.164 33.9 154.864 33.75 154.514 33.65V22.1C154.514 16.15 151.864 11.8 143.564 11.8C136.464 11.8 131.964 15.2 131.914 18.65C131.864 20.25 132.764 21.55 134.764 21.55C137.164 21.55 138.214 20.4 138.564 19.1C139.064 16.9 140.464 15.25 143.364 15.25C145.864 15.25 146.864 16.65 146.864 20.5V23.7C144.964 23.25 143.064 23 141.264 23C135.014 23 130.764 25.85 130.764 31.35C130.764 35.25 133.814 38.65 139.164 38.65C142.014 38.65 144.664 37.35 146.864 35.35V36.6C146.864 37.35 146.964 38.65 148.964 38.65C150.664 38.65 152.964 38.1 154.764 37.45C155.414 37.25 155.964 36.95 156.414 36.75C157.014 36.35 157.464 36.05 157.464 35.6C157.464 35 156.614 34.55 155.464 34.05ZM141.914 34.75C139.514 34.75 138.014 32.65 138.014 30.35C138.014 27.65 139.814 25.95 142.664 25.95C144.314 25.95 145.564 26.2 146.864 26.75V32C145.714 33.65 143.964 34.75 141.914 34.75ZM187.431 35.2C186.531 34.85 185.481 34 184.831 33.1L176.731 21.5L182.531 16.75C184.031 15.55 185.081 15.25 186.281 15C186.931 14.85 187.281 14.45 187.281 13.75C187.281 13.35 187.131 12.75 186.681 12.45H175.231C174.781 12.75 174.631 13.35 174.631 13.75C174.631 14.45 174.981 14.75 175.631 15C176.681 15.3 177.881 16.2 175.831 17.85L169.381 23.15V2.9C169.381 2.15 169.331 0.849998 167.331 0.849998C165.081 0.849998 161.581 1.75 159.881 2.75C159.231 3.15 158.831 3.45 158.831 3.9C158.831 4.5 159.631 4.95 160.781 5.45C161.081 5.6 161.381 5.7 161.731 5.85V32.3C161.731 33.85 161.431 34.95 159.831 35.45C159.181 35.7 158.781 36 158.781 36.7C158.781 37.1 158.981 37.7 159.381 38H171.731C172.181 37.7 172.331 37.1 172.331 36.7C172.331 36 171.981 35.7 171.331 35.45C169.731 34.95 169.381 33.85 169.381 32.3V27.55L171.431 25.9L178.131 36.1C178.981 37.35 179.631 38 181.281 38H188.081C188.681 37.75 188.831 37.2 188.831 36.75C188.831 36.15 188.381 35.7 187.431 35.2Z" fill="#51459E"/>
</svg>
