<svg width="426" height="245" viewBox="0 0 426 245" fill="none" xmlns="http://www.w3.org/2000/svg">
<rect opacity="0.1" x="38.9528" y="55.9795" width="0.395018" height="173.128" fill="#8F92A1"/>
<path d="M34.5106 241.138C34.8883 241.138 35.1877 241.026 35.4091 240.802C35.633 240.576 35.745 240.284 35.745 239.927V236.33H33.0731V235.705H36.4247V239.919C36.4247 240.461 36.2476 240.905 35.8935 241.252C35.5419 241.595 35.081 241.767 34.5106 241.767C33.9846 241.767 33.5549 241.627 33.2216 241.345C32.8883 241.061 32.689 240.688 32.6239 240.224L33.2958 240.048C33.3271 240.374 33.4508 240.637 33.6669 240.837C33.8856 241.038 34.1669 241.138 34.5106 241.138ZM40.7595 241.705H40.1852L40.1657 240.943C40.0017 241.201 39.7881 241.403 39.5251 241.548C39.2647 241.694 38.9834 241.767 38.6813 241.767C38.3089 241.767 38.0082 241.669 37.779 241.474C37.5524 241.279 37.4392 241.015 37.4392 240.681C37.4392 240.304 37.5837 240.018 37.8727 239.826C38.1514 239.643 38.5303 239.491 39.0095 239.369L40.1501 239.103C40.124 238.822 40.0199 238.608 39.8376 238.462C39.6579 238.314 39.4235 238.24 39.1345 238.24C38.8402 238.24 38.5967 238.308 38.404 238.443C38.2139 238.578 38.085 238.775 38.0173 239.033L37.4392 238.919C37.5147 238.547 37.7074 238.252 38.0173 238.033C38.3272 237.814 38.7074 237.705 39.1579 237.705C39.6501 237.705 40.0394 237.84 40.3259 238.111C40.6149 238.379 40.7595 238.745 40.7595 239.209V241.705ZM38.0876 240.627C38.0876 240.809 38.1475 240.956 38.2673 241.068C38.3897 241.177 38.5563 241.232 38.7673 241.232C39.1423 241.232 39.4678 241.094 39.7438 240.818C40.0199 240.542 40.1579 240.168 40.1579 239.697V239.607L39.0095 239.888C38.697 239.969 38.4652 240.065 38.3142 240.177C38.1631 240.289 38.0876 240.439 38.0876 240.627ZM42.4692 241.705H41.8442V237.767H42.4458L42.4614 238.361C42.5994 238.158 42.7765 237.998 42.9927 237.88C43.2114 237.763 43.4601 237.705 43.7387 237.705C44.033 237.705 44.2947 237.765 44.5239 237.884C44.7531 238.004 44.9367 238.19 45.0747 238.443C45.2153 238.693 45.2856 238.994 45.2856 239.345V241.705H44.6606V239.4C44.6606 239.043 44.5656 238.77 44.3755 238.58C44.1854 238.387 43.9341 238.291 43.6216 238.291C43.3169 238.291 43.0499 238.393 42.8208 238.599C42.5864 238.81 42.4692 239.123 42.4692 239.537V241.705Z" fill="#8F92A1"/>
<rect opacity="0.1" x="72.5289" y="55.9795" width="0.395018" height="173.128" fill="#8F92A1"/>
<path d="M67.638 241.705H66.9544V235.705H70.6028V236.33H67.638V238.306H69.8137V238.919H67.638V241.705ZM74.0118 241.705H73.4376L73.418 240.943C73.254 241.201 73.0404 241.403 72.7774 241.548C72.517 241.694 72.2357 241.767 71.9337 241.767C71.5613 241.767 71.2605 241.669 71.0313 241.474C70.8048 241.279 70.6915 241.014 70.6915 240.681C70.6915 240.304 70.836 240.018 71.1251 239.826C71.4037 239.643 71.7826 239.491 72.2618 239.369L73.4024 239.103C73.3764 238.822 73.2722 238.608 73.0899 238.462C72.9102 238.314 72.6758 238.24 72.3868 238.24C72.0925 238.24 71.849 238.307 71.6563 238.443C71.4662 238.578 71.3373 238.775 71.2696 239.033L70.6915 238.919C70.767 238.547 70.9597 238.251 71.2696 238.033C71.5795 237.814 71.9597 237.705 72.4102 237.705C72.9024 237.705 73.2917 237.84 73.5782 238.111C73.8673 238.379 74.0118 238.745 74.0118 239.208V241.705ZM71.3399 240.626C71.3399 240.809 71.3998 240.956 71.5196 241.068C71.642 241.177 71.8087 241.232 72.0196 241.232C72.3946 241.232 72.7201 241.094 72.9962 240.818C73.2722 240.542 73.4102 240.168 73.4102 239.697V239.607L72.2618 239.888C71.9493 239.969 71.7175 240.065 71.5665 240.177C71.4154 240.289 71.3399 240.439 71.3399 240.626ZM75.6981 241.705H75.0965V235.705H75.7215V238.423C75.8882 238.194 76.0939 238.017 76.3387 237.892C76.5835 237.767 76.8543 237.705 77.1512 237.705C77.6981 237.705 78.1538 237.896 78.5184 238.279C78.883 238.662 79.0653 239.145 79.0653 239.728C79.0653 240.317 78.883 240.804 78.5184 241.189C78.1538 241.574 77.6981 241.767 77.1512 241.767C76.8543 241.767 76.5822 241.703 76.3348 241.576C76.0874 241.445 75.8804 241.264 75.7137 241.033L75.6981 241.705ZM77.0653 238.279C76.6668 238.279 76.3439 238.413 76.0965 238.681C75.8465 238.96 75.7215 239.309 75.7215 239.728C75.7215 240.153 75.8465 240.504 76.0965 240.783C76.3413 241.056 76.6642 241.193 77.0653 241.193C77.4533 241.193 77.7762 241.056 78.034 240.783C78.284 240.504 78.409 240.153 78.409 239.728C78.409 239.309 78.284 238.96 78.034 238.681C77.7736 238.413 77.4507 238.279 77.0653 238.279Z" fill="#8F92A1"/>
<rect opacity="0.1" x="106.106" y="55.9795" width="0.395018" height="173.128" fill="#8F92A1"/>
<path d="M100.675 241.705H100.019V235.705H100.75L102.879 238.416L104.972 235.705H105.703V241.705H105.047V236.634L102.933 239.337H102.781L100.675 236.65V241.705ZM110.139 241.705H109.565L109.545 240.943C109.381 241.201 109.168 241.403 108.905 241.548C108.644 241.694 108.363 241.767 108.061 241.767C107.689 241.767 107.388 241.669 107.159 241.474C106.932 241.279 106.819 241.014 106.819 240.681C106.819 240.304 106.963 240.018 107.252 239.826C107.531 239.643 107.91 239.491 108.389 239.369L109.53 239.103C109.504 238.822 109.4 238.608 109.217 238.462C109.038 238.314 108.803 238.24 108.514 238.24C108.22 238.24 107.976 238.307 107.784 238.443C107.594 238.578 107.465 238.775 107.397 239.033L106.819 238.919C106.894 238.547 107.087 238.251 107.397 238.033C107.707 237.814 108.087 237.705 108.538 237.705C109.03 237.705 109.419 237.84 109.706 238.111C109.995 238.379 110.139 238.745 110.139 239.208V241.705ZM107.467 240.626C107.467 240.809 107.527 240.956 107.647 241.068C107.769 241.177 107.936 241.232 108.147 241.232C108.522 241.232 108.847 241.094 109.123 240.818C109.4 240.542 109.538 240.168 109.538 239.697V239.607L108.389 239.888C108.077 239.969 107.845 240.065 107.694 240.177C107.543 240.289 107.467 240.439 107.467 240.626ZM111.849 241.705H111.224V237.767H111.841L111.857 238.392C111.971 238.181 112.131 238.014 112.337 237.892C112.545 237.767 112.782 237.705 113.048 237.705C113.181 237.705 113.311 237.723 113.439 237.759L113.345 238.376C113.217 238.34 113.083 238.322 112.943 238.322C112.633 238.322 112.372 238.44 112.161 238.677C111.953 238.914 111.849 239.241 111.849 239.658V241.705Z" fill="#8F92A1"/>
<rect opacity="0.1" x="139.682" y="55.9795" width="0.395018" height="173.128" fill="#8F92A1"/>
<path d="M134.084 241.705H133.404L135.697 235.705H136.451L138.756 241.705H138.033L137.252 239.634H134.865L134.084 241.705ZM136.061 236.482L135.1 239.017H137.018L136.061 236.482ZM139.376 243.466V237.767H139.977L139.993 238.447C140.16 238.212 140.365 238.03 140.61 237.9C140.858 237.77 141.131 237.705 141.43 237.705C141.977 237.705 142.433 237.896 142.798 238.279C143.162 238.662 143.345 239.145 143.345 239.728C143.345 240.317 143.162 240.804 142.798 241.189C142.433 241.574 141.977 241.767 141.43 241.767C141.134 241.767 140.863 241.705 140.618 241.58C140.373 241.452 140.167 241.272 140.001 241.041V243.466H139.376ZM141.345 238.279C140.946 238.279 140.623 238.413 140.376 238.681C140.126 238.96 140.001 239.309 140.001 239.728C140.001 240.153 140.126 240.504 140.376 240.783C140.621 241.056 140.944 241.193 141.345 241.193C141.733 241.193 142.055 241.056 142.313 240.783C142.563 240.504 142.688 240.153 142.688 239.728C142.688 239.309 142.563 238.96 142.313 238.681C142.053 238.413 141.73 238.279 141.345 238.279ZM144.82 241.705H144.195V237.767H144.812L144.828 238.392C144.942 238.181 145.102 238.014 145.308 237.892C145.517 237.767 145.754 237.705 146.019 237.705C146.152 237.705 146.282 237.723 146.41 237.759L146.316 238.376C146.188 238.34 146.054 238.322 145.914 238.322C145.604 238.322 145.343 238.44 145.132 238.677C144.924 238.914 144.82 239.241 144.82 239.658V241.705Z" fill="#8F92A1"/>
<rect opacity="0.1" x="173.259" y="55.9795" width="0.395018" height="173.128" fill="#8F92A1"/>
<path d="M167.309 241.705H166.653V235.705H167.383L169.512 238.416L171.606 235.705H172.336V241.705H171.68V236.634L169.567 239.337H169.414L167.309 236.65V241.705ZM176.773 241.705H176.198L176.179 240.943C176.015 241.201 175.801 241.403 175.538 241.548C175.278 241.694 174.997 241.767 174.695 241.767C174.322 241.767 174.021 241.669 173.792 241.474C173.566 241.279 173.452 241.014 173.452 240.681C173.452 240.304 173.597 240.018 173.886 239.826C174.165 239.643 174.543 239.491 175.023 239.369L176.163 239.103C176.137 238.822 176.033 238.608 175.851 238.462C175.671 238.314 175.437 238.24 175.148 238.24C174.853 238.24 174.61 238.307 174.417 238.443C174.227 238.578 174.098 238.775 174.03 239.033L173.452 238.919C173.528 238.547 173.721 238.251 174.03 238.033C174.34 237.814 174.721 237.705 175.171 237.705C175.663 237.705 176.053 237.84 176.339 238.111C176.628 238.379 176.773 238.745 176.773 239.208V241.705ZM174.101 240.626C174.101 240.809 174.161 240.956 174.28 241.068C174.403 241.177 174.57 241.232 174.78 241.232C175.155 241.232 175.481 241.094 175.757 240.818C176.033 240.542 176.171 240.168 176.171 239.697V239.607L175.023 239.888C174.71 239.969 174.478 240.065 174.327 240.177C174.176 240.289 174.101 240.439 174.101 240.626ZM178.869 241.673L177.154 237.767H177.861L179.213 240.873L180.436 237.767H181.1L178.803 243.466H178.146L178.869 241.673Z" fill="#8F92A1"/>
<rect opacity="0.1" x="206.835" y="55.9795" width="0.395018" height="173.128" fill="#8F92A1"/>
<path d="M202.225 241.138C202.603 241.138 202.903 241.026 203.124 240.802C203.348 240.576 203.46 240.284 203.46 239.927V236.33H200.788V235.705H204.14V239.919C204.14 240.461 203.962 240.905 203.608 241.251C203.257 241.595 202.796 241.767 202.225 241.767C201.699 241.767 201.27 241.626 200.936 241.345C200.603 241.061 200.404 240.688 200.339 240.224L201.011 240.048C201.042 240.374 201.166 240.637 201.382 240.837C201.6 241.038 201.882 241.138 202.225 241.138ZM205.361 237.767H205.986V240.13C205.986 240.461 206.08 240.722 206.267 240.912C206.455 241.099 206.705 241.193 207.017 241.193C207.161 241.193 207.295 241.171 207.42 241.126C207.547 241.08 207.663 241.011 207.767 240.919C207.871 240.828 207.953 240.706 208.013 240.552C208.076 240.396 208.107 240.218 208.107 240.017V237.767H208.732V241.705H208.154L208.138 241.13C207.998 241.336 207.817 241.494 207.595 241.603C207.377 241.712 207.133 241.767 206.865 241.767C206.427 241.767 206.071 241.629 205.795 241.353C205.506 241.072 205.361 240.682 205.361 240.185V237.767ZM210.52 241.705H209.895V237.767H210.497L210.512 238.361C210.65 238.158 210.827 237.998 211.043 237.88C211.262 237.763 211.511 237.705 211.79 237.705C212.084 237.705 212.346 237.764 212.575 237.884C212.804 238.004 212.987 238.19 213.125 238.443C213.266 238.693 213.336 238.994 213.336 239.345V241.705H212.711V239.4C212.711 239.043 212.616 238.77 212.426 238.58C212.236 238.387 211.985 238.291 211.672 238.291C211.368 238.291 211.101 238.393 210.872 238.599C210.637 238.81 210.52 239.123 210.52 239.537V241.705Z" fill="#8F92A1"/>
<rect opacity="0.1" x="240.412" y="55.9795" width="0.395018" height="173.128" fill="#8F92A1"/>
<path d="M237.165 241.138C237.543 241.138 237.842 241.026 238.064 240.802C238.288 240.576 238.4 240.284 238.4 239.927V236.33H235.728V235.705H239.079V239.919C239.079 240.461 238.902 240.905 238.548 241.251C238.196 241.595 237.736 241.767 237.165 241.767C236.639 241.767 236.209 241.626 235.876 241.345C235.543 241.061 235.344 240.688 235.278 240.224L235.95 240.048C235.982 240.374 236.105 240.637 236.321 240.837C236.54 241.038 236.821 241.138 237.165 241.138ZM240.301 237.767H240.926V240.13C240.926 240.461 241.019 240.722 241.207 240.912C241.394 241.099 241.644 241.193 241.957 241.193C242.1 241.193 242.234 241.171 242.359 241.126C242.487 241.08 242.603 241.011 242.707 240.919C242.811 240.828 242.893 240.706 242.953 240.552C243.016 240.396 243.047 240.218 243.047 240.017V237.767H243.672V241.705H243.094L243.078 241.13C242.937 241.336 242.756 241.494 242.535 241.603C242.316 241.712 242.073 241.767 241.805 241.767C241.367 241.767 241.01 241.629 240.734 241.353C240.445 241.072 240.301 240.682 240.301 240.185V237.767ZM245.46 241.705H244.835V235.705H245.46V241.705Z" fill="#8F92A1"/>
<rect opacity="0.1" x="273.989" y="55.9795" width="0.395018" height="173.128" fill="#8F92A1"/>
<path d="M267.57 241.705H266.89L269.183 235.705H269.937L272.242 241.705H271.519L270.738 239.634H268.351L267.57 241.705ZM269.547 236.482L268.586 239.017H270.504L269.547 236.482ZM272.749 237.767H273.374V240.13C273.374 240.461 273.467 240.722 273.655 240.912C273.842 241.099 274.092 241.193 274.405 241.193C274.548 241.193 274.682 241.171 274.807 241.126C274.935 241.08 275.051 241.011 275.155 240.919C275.259 240.828 275.341 240.706 275.401 240.552C275.463 240.396 275.495 240.218 275.495 240.017V237.767H276.12V241.705H275.542L275.526 241.13C275.385 241.336 275.204 241.494 274.983 241.603C274.764 241.712 274.521 241.767 274.253 241.767C273.815 241.767 273.458 241.629 273.182 241.353C272.893 241.072 272.749 240.682 272.749 240.185V237.767ZM276.97 239.72C276.97 239.139 277.152 238.659 277.517 238.279C277.882 237.896 278.345 237.705 278.908 237.705C279.197 237.705 279.462 237.766 279.704 237.888C279.949 238.011 280.155 238.184 280.322 238.408L280.337 237.767H280.947V241.666C280.947 242.225 280.768 242.676 280.411 243.017C280.055 243.358 279.579 243.529 278.986 243.529C278.467 243.529 278.042 243.405 277.708 243.158C277.378 242.91 277.185 242.591 277.13 242.201L277.771 242.08C277.818 242.345 277.945 242.556 278.154 242.712C278.365 242.871 278.642 242.951 278.986 242.951C279.384 242.951 279.704 242.841 279.947 242.623C280.191 242.406 280.314 242.1 280.314 241.705V241.033C280.147 241.249 279.941 241.419 279.697 241.544C279.452 241.667 279.189 241.728 278.908 241.728C278.345 241.728 277.882 241.538 277.517 241.158C277.152 240.778 276.97 240.298 276.97 239.72ZM277.626 239.72C277.626 240.142 277.751 240.487 278.001 240.755C278.251 241.021 278.577 241.154 278.978 241.154C279.376 241.154 279.699 241.02 279.947 240.751C280.191 240.488 280.314 240.145 280.314 239.72C280.314 239.298 280.191 238.952 279.947 238.681C279.699 238.413 279.376 238.279 278.978 238.279C278.574 238.279 278.249 238.413 278.001 238.681C277.751 238.96 277.626 239.306 277.626 239.72Z" fill="#8F92A1"/>
<rect opacity="0.1" x="307.565" y="55.9795" width="0.395018" height="173.128" fill="#8F92A1"/>
<path d="M305.205 237.201L304.557 237.376C304.502 237.035 304.344 236.762 304.084 236.556C303.826 236.35 303.499 236.248 303.103 236.248C302.684 236.248 302.352 236.332 302.107 236.501C301.863 236.668 301.74 236.901 301.74 237.201C301.74 237.341 301.77 237.468 301.83 237.58C301.892 237.689 301.96 237.778 302.033 237.845C302.109 237.91 302.228 237.974 302.392 238.037C302.559 238.099 302.692 238.143 302.791 238.169C302.89 238.193 303.051 238.231 303.275 238.283C303.304 238.291 303.326 238.296 303.342 238.298C303.506 238.335 303.649 238.369 303.771 238.4C303.894 238.431 304.028 238.473 304.174 238.525C304.322 238.577 304.448 238.632 304.553 238.689C304.657 238.746 304.761 238.819 304.865 238.908C304.969 238.996 305.053 239.093 305.115 239.197C305.18 239.301 305.232 239.425 305.271 239.568C305.313 239.708 305.334 239.863 305.334 240.033C305.334 240.569 305.135 240.992 304.736 241.302C304.34 241.612 303.817 241.767 303.166 241.767C302.877 241.767 302.611 241.737 302.369 241.677C302.127 241.617 301.916 241.534 301.736 241.427C301.559 241.32 301.406 241.193 301.275 241.044C301.148 240.893 301.049 240.729 300.978 240.552C300.908 240.375 300.864 240.186 300.846 239.986L301.517 239.81C301.554 240.211 301.717 240.535 302.006 240.783C302.297 241.03 302.692 241.154 303.189 241.154C303.606 241.154 303.951 241.06 304.225 240.873C304.501 240.682 304.639 240.418 304.639 240.08C304.639 239.931 304.611 239.8 304.557 239.685C304.504 239.568 304.438 239.472 304.357 239.396C304.277 239.32 304.165 239.253 304.021 239.193C303.881 239.13 303.747 239.082 303.619 239.048C303.491 239.014 303.33 238.977 303.135 238.935C302.947 238.893 302.803 238.861 302.701 238.837C302.602 238.814 302.467 238.776 302.295 238.724C302.126 238.669 301.993 238.617 301.896 238.568C301.8 238.516 301.691 238.447 301.568 238.361C301.446 238.272 301.352 238.179 301.287 238.08C301.225 237.978 301.17 237.856 301.123 237.712C301.076 237.569 301.053 237.412 301.053 237.24C301.053 236.912 301.144 236.625 301.326 236.38C301.511 236.136 301.758 235.952 302.068 235.83C302.378 235.705 302.728 235.642 303.119 235.642C303.684 235.642 304.154 235.783 304.529 236.064C304.904 236.343 305.129 236.722 305.205 237.201ZM305.993 239.712C305.993 239.132 306.179 238.653 306.551 238.275C306.924 237.895 307.394 237.705 307.962 237.705C308.524 237.705 308.98 237.875 309.329 238.216C309.68 238.56 309.856 239.003 309.856 239.544C309.856 239.547 309.848 239.654 309.833 239.865H306.633C306.667 240.305 306.801 240.639 307.036 240.869C307.273 241.095 307.587 241.208 307.977 241.208C308.324 241.208 308.606 241.136 308.825 240.99C309.044 240.841 309.188 240.637 309.258 240.376L309.833 240.49C309.749 240.875 309.538 241.185 309.2 241.419C308.861 241.651 308.454 241.767 307.977 241.767C307.378 241.767 306.898 241.576 306.536 241.193C306.174 240.807 305.993 240.314 305.993 239.712ZM308.848 238.548C308.611 238.343 308.316 238.24 307.962 238.24C307.607 238.24 307.308 238.344 307.063 238.552C306.818 238.758 306.68 239.022 306.649 239.345H309.235C309.214 239.02 309.085 238.754 308.848 238.548ZM310.718 243.466V237.767H311.32L311.335 238.447C311.502 238.212 311.708 238.03 311.953 237.9C312.2 237.77 312.473 237.705 312.773 237.705C313.32 237.705 313.776 237.896 314.14 238.279C314.505 238.662 314.687 239.145 314.687 239.728C314.687 240.317 314.505 240.804 314.14 241.189C313.776 241.574 313.32 241.767 312.773 241.767C312.476 241.767 312.205 241.705 311.96 241.58C311.716 241.452 311.51 241.272 311.343 241.041V243.466H310.718ZM312.687 238.279C312.289 238.279 311.966 238.413 311.718 238.681C311.468 238.96 311.343 239.309 311.343 239.728C311.343 240.153 311.468 240.504 311.718 240.783C311.963 241.056 312.286 241.193 312.687 241.193C313.075 241.193 313.398 241.056 313.656 240.783C313.906 240.504 314.031 240.153 314.031 239.728C314.031 239.309 313.906 238.96 313.656 238.681C313.395 238.413 313.072 238.279 312.687 238.279Z" fill="#8F92A1"/>
<rect opacity="0.1" x="341.141" y="55.9795" width="0.395018" height="173.128" fill="#8F92A1"/>
<path d="M335.246 240.283C335.002 239.817 334.879 239.291 334.879 238.705C334.879 238.119 335.002 237.593 335.246 237.126C335.491 236.66 335.835 236.297 336.278 236.037C336.723 235.774 337.229 235.642 337.797 235.642C338.224 235.642 338.62 235.719 338.985 235.873C339.349 236.026 339.658 236.237 339.91 236.505C340.163 236.774 340.361 237.098 340.504 237.478C340.647 237.856 340.719 238.264 340.719 238.705C340.719 239.142 340.647 239.551 340.504 239.931C340.361 240.309 340.163 240.633 339.91 240.904C339.658 241.172 339.349 241.383 338.985 241.537C338.62 241.69 338.224 241.767 337.797 241.767C337.229 241.767 336.723 241.636 336.278 241.373C335.835 241.11 335.491 240.746 335.246 240.283ZM339.403 240.462C339.811 240.012 340.016 239.426 340.016 238.705C340.016 237.983 339.811 237.397 339.403 236.947C338.994 236.496 338.459 236.271 337.797 236.271C337.128 236.271 336.591 236.496 336.188 236.947C335.784 237.395 335.582 237.981 335.582 238.705C335.582 239.429 335.784 240.016 336.188 240.466C336.591 240.914 337.128 241.138 337.797 241.138C338.459 241.138 338.994 240.913 339.403 240.462ZM342.421 238.673C342.166 238.936 342.038 239.283 342.038 239.712C342.038 240.142 342.163 240.496 342.413 240.775C342.658 241.054 342.976 241.193 343.366 241.193C343.697 241.193 343.97 241.106 344.187 240.931C344.403 240.754 344.542 240.518 344.605 240.224L345.206 240.33C345.136 240.738 344.933 241.08 344.597 241.353C344.266 241.629 343.856 241.767 343.366 241.767C342.793 241.767 342.319 241.573 341.944 241.185C341.569 240.794 341.382 240.304 341.382 239.712C341.382 239.134 341.571 238.655 341.948 238.275C342.326 237.895 342.799 237.705 343.366 237.705C343.84 237.705 344.237 237.83 344.558 238.08C344.881 238.33 345.089 238.666 345.183 239.087L344.573 239.201C344.503 238.919 344.362 238.695 344.151 238.529C343.943 238.362 343.684 238.279 343.374 238.279C342.983 238.279 342.666 238.41 342.421 238.673ZM345.365 238.314V238.162L346.533 237.072H346.678V237.767H348.15V238.314H346.678V240.49C346.678 240.732 346.734 240.91 346.846 241.025C346.96 241.137 347.133 241.193 347.365 241.193C347.529 241.193 347.73 241.147 347.967 241.056L348.111 241.576C347.814 241.703 347.534 241.767 347.271 241.767C346.883 241.767 346.583 241.664 346.369 241.458C346.155 241.253 346.049 240.964 346.049 240.591V238.314H345.365Z" fill="#8F92A1"/>
<rect opacity="0.1" x="374.718" y="55.9795" width="0.395018" height="173.128" fill="#8F92A1"/>
<path d="M369.034 241.705H368.386V235.705H369.116L372.491 240.705V235.705H373.147V241.705H372.421L369.034 236.689V241.705ZM374.752 238.279C375.134 237.896 375.62 237.705 376.209 237.705C376.797 237.705 377.283 237.896 377.666 238.279C378.049 238.662 378.24 239.145 378.24 239.728C378.24 240.319 378.049 240.807 377.666 241.193C377.283 241.576 376.797 241.767 376.209 241.767C375.62 241.767 375.134 241.576 374.752 241.193C374.369 240.807 374.177 240.319 374.177 239.728C374.177 239.145 374.369 238.662 374.752 238.279ZM376.209 238.279C375.813 238.279 375.485 238.413 375.224 238.681C374.964 238.949 374.834 239.298 374.834 239.728C374.834 240.163 374.964 240.514 375.224 240.783C375.482 241.056 375.81 241.193 376.209 241.193C376.605 241.193 376.935 241.056 377.201 240.783C377.459 240.509 377.588 240.158 377.588 239.728C377.588 239.304 377.459 238.955 377.201 238.681C376.933 238.413 376.602 238.279 376.209 238.279ZM380.723 241.705H380.02L378.473 237.767H379.172L380.395 240.978L381.625 237.767H382.29L380.723 241.705Z" fill="#8F92A1"/>
<rect opacity="0.1" x="408.295" y="55.9795" width="0.395018" height="173.128" fill="#8F92A1"/>
<path d="M403.771 241.705H401.993V235.705H403.771C404.211 235.705 404.617 235.778 404.99 235.923C405.362 236.069 405.677 236.272 405.935 236.533C406.195 236.791 406.398 237.106 406.544 237.478C406.69 237.85 406.763 238.257 406.763 238.697C406.763 239.288 406.638 239.811 406.388 240.267C406.141 240.723 405.789 241.077 405.333 241.33C404.88 241.58 404.359 241.705 403.771 241.705ZM403.771 236.33H402.677V241.08H403.771C404.453 241.08 405.005 240.863 405.427 240.431C405.849 239.996 406.06 239.418 406.06 238.697C406.06 237.975 405.849 237.401 405.427 236.974C405.005 236.544 404.453 236.33 403.771 236.33ZM407.426 239.712C407.426 239.132 407.612 238.653 407.984 238.275C408.357 237.895 408.827 237.705 409.395 237.705C409.957 237.705 410.413 237.875 410.762 238.216C411.113 238.56 411.289 239.003 411.289 239.544C411.289 239.547 411.281 239.654 411.266 239.865H408.066C408.1 240.305 408.234 240.639 408.469 240.869C408.706 241.095 409.02 241.208 409.41 241.208C409.757 241.208 410.039 241.136 410.258 240.99C410.477 240.841 410.621 240.637 410.691 240.376L411.266 240.49C411.182 240.875 410.971 241.185 410.633 241.419C410.294 241.651 409.887 241.767 409.41 241.767C408.811 241.767 408.331 241.576 407.969 241.193C407.607 240.807 407.426 240.314 407.426 239.712ZM410.281 238.548C410.044 238.343 409.749 238.24 409.395 238.24C409.04 238.24 408.741 238.344 408.496 238.552C408.251 238.758 408.113 239.022 408.082 239.345H410.668C410.647 239.02 410.518 238.754 410.281 238.548ZM412.878 238.673C412.623 238.936 412.495 239.283 412.495 239.712C412.495 240.142 412.62 240.496 412.87 240.775C413.115 241.054 413.432 241.193 413.823 241.193C414.154 241.193 414.427 241.106 414.643 240.931C414.86 240.754 414.999 240.518 415.061 240.224L415.663 240.33C415.593 240.738 415.39 241.08 415.054 241.353C414.723 241.629 414.313 241.767 413.823 241.767C413.25 241.767 412.776 241.573 412.401 241.185C412.026 240.794 411.839 240.304 411.839 239.712C411.839 239.134 412.028 238.655 412.405 238.275C412.783 237.895 413.255 237.705 413.823 237.705C414.297 237.705 414.694 237.83 415.015 238.08C415.337 238.33 415.546 238.666 415.64 239.087L415.03 239.201C414.96 238.919 414.819 238.695 414.608 238.529C414.4 238.362 414.141 238.279 413.831 238.279C413.44 238.279 413.123 238.41 412.878 238.673Z" fill="#8F92A1"/>
<path d="M5.12775 227.972C5.12775 228.933 4.93113 229.687 4.5379 230.234C4.13947 230.778 3.61603 231.051 2.96759 231.051C2.31915 231.051 1.79962 230.778 1.409 230.234C1.00795 229.687 0.807434 228.933 0.807434 227.972C0.807434 227.017 1.00795 226.269 1.409 225.73C1.79962 225.194 2.31915 224.926 2.96759 224.926C3.61603 224.926 4.13947 225.194 4.5379 225.73C4.93113 226.269 5.12775 227.017 5.12775 227.972ZM2.96759 230.43C3.42592 230.43 3.784 230.212 4.04181 229.777C4.30223 229.34 4.43243 228.738 4.43243 227.972C4.43243 227.217 4.30223 226.625 4.04181 226.195C3.784 225.763 3.42592 225.547 2.96759 225.547C2.50405 225.547 2.14337 225.763 1.88556 226.195C1.62775 226.625 1.49884 227.217 1.49884 227.972C1.49884 228.741 1.62775 229.342 1.88556 229.777C2.14337 230.212 2.50405 230.43 2.96759 230.43Z" fill="#8F92A1"/>
<path d="M1.6004 201.5H4.49884V202.133H0.682434V201.574L2.48712 199.699C2.88035 199.306 3.16811 198.97 3.3504 198.691C3.53269 198.413 3.62384 198.122 3.62384 197.82C3.62384 197.487 3.51447 197.216 3.29572 197.008C3.07697 196.797 2.79702 196.691 2.45587 196.691C2.15379 196.691 1.87905 196.78 1.63165 196.957C1.37644 197.147 1.2228 197.44 1.17072 197.836L0.514465 197.699C0.576965 197.345 0.704569 197.044 0.897278 196.797C1.08999 196.547 1.32176 196.363 1.59259 196.246C1.86342 196.129 2.1616 196.07 2.48712 196.07C3.02358 196.07 3.46108 196.229 3.79962 196.547C4.14077 196.865 4.31134 197.284 4.31134 197.805C4.31134 198.221 4.19676 198.592 3.96759 198.918C3.75405 199.22 3.44025 199.587 3.02618 200.02L1.6004 201.5ZM9.525 199.117C9.525 200.078 9.32838 200.832 8.93516 201.379C8.53672 201.923 8.01328 202.195 7.36484 202.195C6.71641 202.195 6.19687 201.923 5.80625 201.379C5.40521 200.832 5.20469 200.078 5.20469 199.117C5.20469 198.161 5.40521 197.414 5.80625 196.875C6.19687 196.339 6.71641 196.07 7.36484 196.07C8.01328 196.07 8.53672 196.339 8.93516 196.875C9.32838 197.414 9.525 198.161 9.525 199.117ZM7.36484 201.574C7.82318 201.574 8.18125 201.357 8.43906 200.922C8.69948 200.484 8.82969 199.883 8.82969 199.117C8.82969 198.362 8.69948 197.77 8.43906 197.34C8.18125 196.908 7.82318 196.691 7.36484 196.691C6.9013 196.691 6.54062 196.908 6.28281 197.34C6.025 197.77 5.89609 198.362 5.89609 199.117C5.89609 199.885 6.025 200.487 6.28281 200.922C6.54062 201.357 6.9013 201.574 7.36484 201.574ZM14.8285 199.117C14.8285 200.078 14.6319 200.832 14.2387 201.379C13.8402 201.923 13.3168 202.195 12.6683 202.195C12.0199 202.195 11.5004 201.923 11.1098 201.379C10.7087 200.832 10.5082 200.078 10.5082 199.117C10.5082 198.161 10.7087 197.414 11.1098 196.875C11.5004 196.339 12.0199 196.07 12.6683 196.07C13.3168 196.07 13.8402 196.339 14.2387 196.875C14.6319 197.414 14.8285 198.161 14.8285 199.117ZM12.6683 201.574C13.1267 201.574 13.4848 201.357 13.7426 200.922C14.003 200.484 14.1332 199.883 14.1332 199.117C14.1332 198.362 14.003 197.77 13.7426 197.34C13.4848 196.908 13.1267 196.691 12.6683 196.691C12.2048 196.691 11.8441 196.908 11.5863 197.34C11.3285 197.77 11.1996 198.362 11.1996 199.117C11.1996 199.885 11.3285 200.487 11.5863 200.922C11.8441 201.357 12.2048 201.574 12.6683 201.574Z" fill="#8F92A1"/>
<path d="M4.04181 173.277H3.36993V171.828H0.448059V171.246L3.1629 167.277H4.04181V171.215H4.86603V171.828H4.04181V173.277ZM3.36993 168.011L1.1629 171.215H3.36993V168.011ZM9.80625 170.261C9.80625 171.222 9.60963 171.976 9.21641 172.523C8.81797 173.067 8.29453 173.34 7.64609 173.34C6.99766 173.34 6.47812 173.067 6.0875 172.523C5.68646 171.976 5.48594 171.222 5.48594 170.261C5.48594 169.306 5.68646 168.558 6.0875 168.019C6.47812 167.483 6.99766 167.215 7.64609 167.215C8.29453 167.215 8.81797 167.483 9.21641 168.019C9.60963 168.558 9.80625 169.306 9.80625 170.261ZM7.64609 172.718C8.10443 172.718 8.4625 172.501 8.72031 172.066C8.98073 171.629 9.11094 171.027 9.11094 170.261C9.11094 169.506 8.98073 168.914 8.72031 168.484C8.4625 168.052 8.10443 167.836 7.64609 167.836C7.18255 167.836 6.82187 168.052 6.56406 168.484C6.30625 168.914 6.17734 169.506 6.17734 170.261C6.17734 171.03 6.30625 171.631 6.56406 172.066C6.82187 172.501 7.18255 172.718 7.64609 172.718ZM15.1098 170.261C15.1098 171.222 14.9131 171.976 14.5199 172.523C14.1215 173.067 13.598 173.34 12.9496 173.34C12.3012 173.34 11.7816 173.067 11.391 172.523C10.99 171.976 10.7894 171.222 10.7894 170.261C10.7894 169.306 10.99 168.558 11.391 168.019C11.7816 167.483 12.3012 167.215 12.9496 167.215C13.598 167.215 14.1215 167.483 14.5199 168.019C14.9131 168.558 15.1098 169.306 15.1098 170.261ZM12.9496 172.718C13.4079 172.718 13.766 172.501 14.0238 172.066C14.2842 171.629 14.4144 171.027 14.4144 170.261C14.4144 169.506 14.2842 168.914 14.0238 168.484C13.766 168.052 13.4079 167.836 12.9496 167.836C12.4861 167.836 12.1254 168.052 11.8676 168.484C11.6098 168.914 11.4808 169.506 11.4808 170.261C11.4808 171.03 11.6098 171.631 11.8676 172.066C12.1254 172.501 12.4861 172.718 12.9496 172.718Z" fill="#8F92A1"/>
<path d="M2.58478 144.485C2.20978 144.485 1.86993 144.408 1.56525 144.255C1.26316 144.101 1.02228 143.88 0.84259 143.591C0.665507 143.302 0.576965 142.971 0.576965 142.599C0.576965 142.099 0.731913 141.621 1.04181 141.165L2.8504 138.423H3.61603L2.08087 140.727C2.29702 140.657 2.50535 140.622 2.70587 140.622C3.27098 140.622 3.73712 140.798 4.10431 141.149C4.4715 141.498 4.65509 141.953 4.65509 142.513C4.65509 142.901 4.56525 143.246 4.38556 143.548C4.20587 143.847 3.95848 144.079 3.64337 144.243C3.33087 144.405 2.97801 144.485 2.58478 144.485ZM2.59259 143.856C2.9754 143.856 3.30353 143.73 3.57697 143.477C3.83217 143.233 3.95978 142.911 3.95978 142.513C3.95978 142.122 3.83217 141.804 3.57697 141.559C3.30874 141.32 2.98322 141.2 2.6004 141.2C2.41551 141.2 2.23842 141.234 2.06915 141.302C1.89988 141.367 1.75665 141.458 1.63947 141.575C1.38947 141.838 1.26447 142.166 1.26447 142.559C1.26447 142.94 1.38947 143.251 1.63947 143.493C1.88947 143.735 2.20717 143.856 2.59259 143.856ZM9.69687 141.407C9.69687 142.368 9.50026 143.122 9.10703 143.669C8.70859 144.213 8.18516 144.485 7.53672 144.485C6.88828 144.485 6.36875 144.213 5.97812 143.669C5.57708 143.122 5.37656 142.368 5.37656 141.407C5.37656 140.451 5.57708 139.704 5.97812 139.165C6.36875 138.628 6.88828 138.36 7.53672 138.36C8.18516 138.36 8.70859 138.628 9.10703 139.165C9.50026 139.704 9.69687 140.451 9.69687 141.407ZM7.53672 143.864C7.99505 143.864 8.35312 143.647 8.61094 143.212C8.87135 142.774 9.00156 142.173 9.00156 141.407C9.00156 140.652 8.87135 140.059 8.61094 139.63C8.35312 139.197 7.99505 138.981 7.53672 138.981C7.07318 138.981 6.7125 139.197 6.45469 139.63C6.19687 140.059 6.06797 140.652 6.06797 141.407C6.06797 142.175 6.19687 142.777 6.45469 143.212C6.7125 143.647 7.07318 143.864 7.53672 143.864ZM15.0004 141.407C15.0004 142.368 14.8038 143.122 14.4105 143.669C14.0121 144.213 13.4887 144.485 12.8402 144.485C12.1918 144.485 11.6723 144.213 11.2816 143.669C10.8806 143.122 10.6801 142.368 10.6801 141.407C10.6801 140.451 10.8806 139.704 11.2816 139.165C11.6723 138.628 12.1918 138.36 12.8402 138.36C13.4887 138.36 14.0121 138.628 14.4105 139.165C14.8038 139.704 15.0004 140.451 15.0004 141.407ZM12.8402 143.864C13.2986 143.864 13.6566 143.647 13.9144 143.212C14.1749 142.774 14.3051 142.173 14.3051 141.407C14.3051 140.652 14.1749 140.059 13.9144 139.63C13.6566 139.197 13.2986 138.981 12.8402 138.981C12.3767 138.981 12.016 139.197 11.7582 139.63C11.5004 140.059 11.3715 140.652 11.3715 141.407C11.3715 142.175 11.5004 142.777 11.7582 143.212C12.016 143.647 12.3767 143.864 12.8402 143.864Z" fill="#8F92A1"/>
<path d="M2.80743 115.631C2.42202 115.631 2.07306 115.564 1.76056 115.431C1.44806 115.299 1.19545 115.098 1.00275 114.83C0.810038 114.559 0.713684 114.243 0.713684 113.881C0.713684 113.503 0.823059 113.178 1.04181 112.904C1.26056 112.631 1.54311 112.444 1.88947 112.346C1.62644 112.26 1.4142 112.102 1.25275 111.873C1.09129 111.641 1.01056 111.369 1.01056 111.056C1.01056 110.588 1.18113 110.213 1.52228 109.931C1.86603 109.648 2.29441 109.506 2.80743 109.506C3.32566 109.506 3.75665 109.648 4.1004 109.931C4.44415 110.213 4.61603 110.588 4.61603 111.056C4.61603 111.366 4.534 111.635 4.36993 111.861C4.20848 112.088 3.99493 112.249 3.72931 112.346C4.07827 112.444 4.36082 112.631 4.57697 112.904C4.79572 113.175 4.90509 113.5 4.90509 113.881C4.90509 114.154 4.8491 114.403 4.73712 114.627C4.62514 114.848 4.4728 115.032 4.28009 115.178C4.08999 115.323 3.86863 115.435 3.61603 115.513C3.36342 115.592 3.09389 115.631 2.80743 115.631ZM3.94415 111.096C3.94415 110.801 3.83608 110.566 3.61993 110.388C3.40639 110.209 3.13556 110.119 2.80743 110.119C2.48452 110.119 2.21629 110.209 2.00275 110.388C1.7892 110.566 1.68243 110.801 1.68243 111.096C1.68243 111.392 1.79051 111.632 2.00665 111.814C2.2228 111.997 2.48973 112.088 2.80743 112.088C3.13556 112.088 3.40639 111.998 3.61993 111.818C3.83608 111.636 3.94415 111.395 3.94415 111.096ZM3.81134 114.697C4.08217 114.491 4.21759 114.209 4.21759 113.849C4.21759 113.49 4.08217 113.207 3.81134 113.002C3.54311 112.793 3.20848 112.689 2.80743 112.689C2.4142 112.689 2.08217 112.793 1.81134 113.002C1.54311 113.21 1.409 113.493 1.409 113.849C1.409 114.206 1.54311 114.487 1.81134 114.693C2.07957 114.899 2.4116 115.002 2.80743 115.002C3.20848 115.002 3.54311 114.9 3.81134 114.697ZM10.1109 112.553C10.1109 113.513 9.91432 114.267 9.52109 114.814C9.12266 115.359 8.59922 115.631 7.95078 115.631C7.30234 115.631 6.78281 115.359 6.39219 114.814C5.99114 114.267 5.79062 113.513 5.79062 112.553C5.79062 111.597 5.99114 110.849 6.39219 110.31C6.78281 109.774 7.30234 109.506 7.95078 109.506C8.59922 109.506 9.12266 109.774 9.52109 110.31C9.91432 110.849 10.1109 111.597 10.1109 112.553ZM7.95078 115.01C8.40911 115.01 8.76719 114.792 9.025 114.357C9.28542 113.92 9.41562 113.318 9.41562 112.553C9.41562 111.797 9.28542 111.205 9.025 110.775C8.76719 110.343 8.40911 110.127 7.95078 110.127C7.48724 110.127 7.12656 110.343 6.86875 110.775C6.61094 111.205 6.48203 111.797 6.48203 112.553C6.48203 113.321 6.61094 113.922 6.86875 114.357C7.12656 114.792 7.48724 115.01 7.95078 115.01ZM15.4144 112.553C15.4144 113.513 15.2178 114.267 14.8246 114.814C14.4262 115.359 13.9027 115.631 13.2543 115.631C12.6058 115.631 12.0863 115.359 11.6957 114.814C11.2946 114.267 11.0941 113.513 11.0941 112.553C11.0941 111.597 11.2946 110.849 11.6957 110.31C12.0863 109.774 12.6058 109.506 13.2543 109.506C13.9027 109.506 14.4262 109.774 14.8246 110.31C15.2178 110.849 15.4144 111.597 15.4144 112.553ZM13.2543 115.01C13.7126 115.01 14.0707 114.792 14.3285 114.357C14.5889 113.92 14.7191 113.318 14.7191 112.553C14.7191 111.797 14.5889 111.205 14.3285 110.775C14.0707 110.343 13.7126 110.127 13.2543 110.127C12.7907 110.127 12.4301 110.343 12.1723 110.775C11.9144 111.205 11.7855 111.797 11.7855 112.553C11.7855 113.321 11.9144 113.922 12.1723 114.357C12.4301 114.792 12.7907 115.01 13.2543 115.01Z" fill="#8F92A1"/>
<path d="M2.2879 86.7129H1.62384V82.0488H0.537903V81.6582C0.881653 81.6373 1.1642 81.5462 1.38556 81.3847C1.60952 81.2207 1.74754 80.9967 1.79962 80.7129H2.2879V86.7129ZM7.95469 83.6972C7.95469 84.6582 7.75807 85.4121 7.36484 85.959C6.96641 86.5032 6.44297 86.7754 5.79453 86.7754C5.14609 86.7754 4.62656 86.5032 4.23594 85.959C3.8349 85.4121 3.63437 84.6582 3.63437 83.6972C3.63437 82.7415 3.8349 81.9941 4.23594 81.455C4.62656 80.9186 5.14609 80.6504 5.79453 80.6504C6.44297 80.6504 6.96641 80.9186 7.36484 81.455C7.75807 81.9941 7.95469 82.7415 7.95469 83.6972ZM5.79453 86.1543C6.25286 86.1543 6.61094 85.9368 6.86875 85.5019C7.12917 85.0644 7.25937 84.4629 7.25937 83.6972C7.25937 82.942 7.12917 82.3496 6.86875 81.9199C6.61094 81.4876 6.25286 81.2715 5.79453 81.2715C5.33099 81.2715 4.97031 81.4876 4.7125 81.9199C4.45469 82.3496 4.32578 82.942 4.32578 83.6972C4.32578 84.4655 4.45469 85.067 4.7125 85.5019C4.97031 85.9368 5.33099 86.1543 5.79453 86.1543ZM13.2582 83.6972C13.2582 84.6582 13.0616 85.4121 12.6683 85.959C12.2699 86.5032 11.7465 86.7754 11.098 86.7754C10.4496 86.7754 9.93006 86.5032 9.53944 85.959C9.1384 85.4121 8.93788 84.6582 8.93788 83.6972C8.93788 82.7415 9.1384 81.9941 9.53944 81.455C9.93006 80.9186 10.4496 80.6504 11.098 80.6504C11.7465 80.6504 12.2699 80.9186 12.6683 81.455C13.0616 81.9941 13.2582 82.7415 13.2582 83.6972ZM11.098 86.1543C11.5564 86.1543 11.9144 85.9368 12.1723 85.5019C12.4327 85.0644 12.5629 84.4629 12.5629 83.6972C12.5629 82.942 12.4327 82.3496 12.1723 81.9199C11.9144 81.4876 11.5564 81.2715 11.098 81.2715C10.6345 81.2715 10.2738 81.4876 10.016 81.9199C9.75819 82.3496 9.62928 82.942 9.62928 83.6972C9.62928 84.4655 9.75819 85.067 10.016 85.5019C10.2738 85.9368 10.6345 86.1543 11.098 86.1543ZM18.5617 83.6972C18.5617 84.6582 18.3651 85.4121 17.9718 85.959C17.5734 86.5032 17.05 86.7754 16.4015 86.7754C15.7531 86.7754 15.2336 86.5032 14.8429 85.959C14.4419 85.4121 14.2414 84.6582 14.2414 83.6972C14.2414 82.7415 14.4419 81.9941 14.8429 81.455C15.2336 80.9186 15.7531 80.6504 16.4015 80.6504C17.05 80.6504 17.5734 80.9186 17.9718 81.455C18.3651 81.9941 18.5617 82.7415 18.5617 83.6972ZM16.4015 86.1543C16.8599 86.1543 17.2179 85.9368 17.4758 85.5019C17.7362 85.0644 17.8664 84.4629 17.8664 83.6972C17.8664 82.942 17.7362 82.3496 17.4758 81.9199C17.2179 81.4876 16.8599 81.2715 16.4015 81.2715C15.938 81.2715 15.5773 81.4876 15.3195 81.9199C15.0617 82.3496 14.9328 82.942 14.9328 83.6972C14.9328 84.4655 15.0617 85.067 15.3195 85.5019C15.5773 85.9368 15.938 86.1543 16.4015 86.1543Z" fill="#8F92A1"/>
<path d="M2.28784 62.3937H1.62378V57.7296H0.537842V57.339C0.881592 57.3182 1.16414 57.227 1.3855 57.0656C1.60946 56.9015 1.74748 56.6776 1.79956 56.3937H2.28784V62.3937ZM4.42728 61.7609H7.32572V62.3937H3.50931V61.8351L5.314 59.9601C5.70723 59.5669 5.99499 59.2309 6.17728 58.9523C6.35957 58.6737 6.45072 58.3833 6.45072 58.0812C6.45072 57.7479 6.34134 57.477 6.12259 57.2687C5.90384 57.0578 5.6239 56.9523 5.28275 56.9523C4.98067 56.9523 4.70593 57.0408 4.45853 57.2179C4.20332 57.408 4.04968 57.701 3.99759 58.0968L3.34134 57.9601C3.40384 57.6059 3.53145 57.3052 3.72416 57.0578C3.91687 56.8078 4.14864 56.6242 4.41947 56.507C4.6903 56.3898 4.98848 56.3312 5.314 56.3312C5.85046 56.3312 6.28796 56.4901 6.6265 56.8078C6.96765 57.1255 7.13822 57.5447 7.13822 58.0656C7.13822 58.4822 7.02364 58.8533 6.79447 59.1789C6.58093 59.4809 6.26713 59.8481 5.85306 60.2804L4.42728 61.7609ZM12.3519 59.3781C12.3519 60.339 12.1553 61.0929 11.762 61.6398C11.3636 62.1841 10.8402 62.4562 10.1917 62.4562C9.54328 62.4562 9.02375 62.1841 8.63313 61.6398C8.23209 61.0929 8.03157 60.339 8.03157 59.3781C8.03157 58.4224 8.23209 57.675 8.63313 57.1359C9.02375 56.5994 9.54328 56.3312 10.1917 56.3312C10.8402 56.3312 11.3636 56.5994 11.762 57.1359C12.1553 57.675 12.3519 58.4224 12.3519 59.3781ZM10.1917 61.8351C10.6501 61.8351 11.0081 61.6177 11.2659 61.1828C11.5264 60.7453 11.6566 60.1437 11.6566 59.3781C11.6566 58.6229 11.5264 58.0304 11.2659 57.6007C11.0081 57.1684 10.6501 56.9523 10.1917 56.9523C9.72818 56.9523 9.3675 57.1684 9.10969 57.6007C8.85188 58.0304 8.72297 58.6229 8.72297 59.3781C8.72297 60.1463 8.85188 60.7479 9.10969 61.1828C9.3675 61.6177 9.72818 61.8351 10.1917 61.8351ZM17.6554 59.3781C17.6554 60.339 17.4588 61.0929 17.0655 61.6398C16.6671 62.1841 16.1437 62.4562 15.4952 62.4562C14.8468 62.4562 14.3273 62.1841 13.9366 61.6398C13.5356 61.0929 13.3351 60.339 13.3351 59.3781C13.3351 58.4224 13.5356 57.675 13.9366 57.1359C14.3273 56.5994 14.8468 56.3312 15.4952 56.3312C16.1437 56.3312 16.6671 56.5994 17.0655 57.1359C17.4588 57.675 17.6554 58.4224 17.6554 59.3781ZM15.4952 61.8351C15.9536 61.8351 16.3116 61.6177 16.5694 61.1828C16.8299 60.7453 16.9601 60.1437 16.9601 59.3781C16.9601 58.6229 16.8299 58.0304 16.5694 57.6007C16.3116 57.1684 15.9536 56.9523 15.4952 56.9523C15.0317 56.9523 14.671 57.1684 14.4132 57.6007C14.1554 58.0304 14.0265 58.6229 14.0265 59.3781C14.0265 60.1463 14.1554 60.7479 14.4132 61.1828C14.671 61.6177 15.0317 61.8351 15.4952 61.8351Z" fill="#8F92A1"/>
<path d="M408.69 157.7L398.127 161.485C393.933 162.987 389.396 163.255 385.054 162.256L378.508 160.751C376.257 160.233 374.096 159.383 372.096 158.23L358.522 150.403V150.403C348.9 145.658 337.246 149.026 331.639 158.173L327.98 164.141C325.738 167.8 322.527 170.768 318.704 172.717L314.934 174.639C310.547 176.875 305.36 176.9 300.953 174.705V174.705C294.989 171.735 287.795 172.899 283.071 177.598L280.198 180.456C276.505 184.13 271.399 186.022 266.203 185.643V185.643C260.649 185.238 255.596 182.283 252.52 177.641L246.155 168.039C242.757 162.911 237.309 159.502 231.212 158.688V158.688C226.427 158.048 222.001 155.804 218.658 152.321L214.927 148.434C210.096 143.401 203.134 141.006 196.229 142.002V142.002C192.315 142.566 188.32 142.047 184.68 140.5L182.578 139.607C176.977 137.227 170.572 137.697 165.378 140.868V140.868C159.944 144.185 153.202 144.537 147.453 141.802L145.021 140.646C141.817 139.122 138.196 138.708 134.731 139.469V139.469C127.826 140.987 120.745 137.785 117.322 131.6L113.492 124.677C109.485 117.435 100.75 114.26 93.0276 117.237V117.237C90.7153 118.129 88.2325 118.49 85.7619 118.295L84.9764 118.233C77.5637 117.649 70.4365 121.216 66.4617 127.5L60.1026 137.554C57.4001 141.826 53.3804 145.103 48.6509 146.89L39.3477 150.403" stroke="#84E8F4" stroke-width="2.3284" stroke-linecap="round" stroke-linejoin="round"/>
<path d="M39.3478 139.056L55.9385 133.986L68.6421 129.434C71.4381 128.433 74.4629 128.254 77.3573 128.92L87.2522 131.196C88.7524 131.541 90.193 132.107 91.5266 132.876L106.106 141.283L110.392 143.397C117.587 146.945 126.299 144.426 130.492 137.587L137.791 125.68C139.286 123.24 141.426 121.262 143.975 119.963L149.7 117.044C154.083 114.81 159.272 114.788 163.675 116.981V116.981C169.634 119.948 176.831 118.79 181.55 114.095L182.271 113.378C187.028 108.646 194.287 107.506 200.266 110.553L204.828 112.878C206.418 113.688 207.856 114.766 209.079 116.065L220.008 127.668C222.473 130.285 225.771 131.966 229.338 132.422L235.348 133.19C238.879 133.642 242.149 135.294 244.607 137.87L251.873 145.482C255.34 149.114 260.348 150.845 265.317 150.129L270.09 149.44C272.899 149.035 275.764 149.408 278.376 150.518L283.628 152.749C288.239 154.708 293.511 154.322 297.787 151.712L300.791 149.878C305.264 147.147 310.813 146.858 315.546 149.109L319.748 151.107C322.861 152.588 326.379 152.99 329.746 152.25L330.229 152.144C336.937 150.67 343.817 153.78 347.142 159.79L351.58 167.81C355.333 174.593 363.514 177.567 370.746 174.778L371.823 174.363C373.989 173.528 376.314 173.189 378.628 173.372L382.37 173.667C388.111 174.12 393.631 171.357 396.709 166.49L408.69 147.549" stroke="#51459E" stroke-width="2.3284" stroke-linecap="round" stroke-linejoin="round"/>
<g filter="url(#filter0_d_106_135)">
<ellipse cx="240.807" cy="133.888" rx="6.32029" ry="6.59537" fill="#5243AA"/>
<path d="M245.631 133.888C245.631 136.764 243.412 138.987 240.807 138.987C238.202 138.987 235.983 136.764 235.983 133.888C235.983 131.011 238.202 128.788 240.807 128.788C243.412 128.788 245.631 131.011 245.631 133.888Z" stroke="white" stroke-width="2.99245"/>
</g>
<rect x="215.526" y="87.721" width="50.5623" height="32.9768" rx="5.98489" fill="#F3F6F8"/>
<path d="M235.123 106.221C234.654 106.221 234.229 106.125 233.849 105.933C233.471 105.741 233.17 105.465 232.945 105.103C232.724 104.742 232.613 104.329 232.613 103.863C232.613 103.238 232.807 102.641 233.194 102.071L235.455 98.6433H236.412L234.493 101.524C234.763 101.436 235.024 101.392 235.274 101.392C235.981 101.392 236.563 101.612 237.022 102.051C237.481 102.488 237.711 103.056 237.711 103.756C237.711 104.241 237.599 104.672 237.374 105.05C237.149 105.424 236.84 105.714 236.446 105.919C236.056 106.12 235.615 106.221 235.123 106.221ZM235.133 105.435C235.611 105.435 236.021 105.277 236.363 104.962C236.682 104.656 236.842 104.254 236.842 103.756C236.842 103.267 236.682 102.87 236.363 102.564C236.028 102.265 235.621 102.115 235.143 102.115C234.911 102.115 234.69 102.157 234.478 102.242C234.267 102.323 234.088 102.437 233.941 102.584C233.629 102.912 233.473 103.323 233.473 103.814C233.473 104.289 233.629 104.678 233.941 104.981C234.254 105.284 234.651 105.435 235.133 105.435ZM243.356 103.712C243.356 104.444 243.113 105.046 242.628 105.518C242.146 105.987 241.512 106.221 240.724 106.221C240.079 106.221 239.529 106.06 239.073 105.738C238.621 105.412 238.325 104.934 238.185 104.302L239.015 104.063C239.129 104.535 239.34 104.884 239.65 105.108C239.962 105.333 240.327 105.445 240.743 105.445C241.235 105.445 241.652 105.287 241.993 104.971C242.319 104.669 242.482 104.252 242.482 103.721C242.482 103.233 242.325 102.82 242.013 102.481C241.694 102.162 241.29 102.003 240.802 102.003C240.48 102.003 240.193 102.056 239.943 102.164C239.695 102.271 239.498 102.424 239.352 102.623L238.683 102.413L239.322 98.6433H243.053V99.405H239.991L239.606 101.612C239.993 101.381 240.429 101.265 240.914 101.265C241.627 101.265 242.211 101.495 242.667 101.954C243.126 102.41 243.356 102.995 243.356 103.712ZM246.491 98.5652C246.959 98.5652 247.383 98.6612 247.76 98.8532C248.141 99.0453 248.442 99.322 248.663 99.6833C248.888 100.045 249 100.458 249 100.924C249 101.552 248.808 102.149 248.424 102.716L246.163 106.143H245.202L247.121 103.262C246.85 103.35 246.592 103.394 246.344 103.394C245.638 103.394 245.053 103.176 244.591 102.74C244.132 102.301 243.903 101.731 243.903 101.031C243.903 100.546 244.015 100.116 244.24 99.7419C244.464 99.3643 244.772 99.0746 245.163 98.8728C245.556 98.6677 245.999 98.5652 246.491 98.5652ZM247.672 99.8054C247.36 99.5027 246.963 99.3513 246.481 99.3513C245.999 99.3513 245.592 99.5092 245.26 99.8249C244.935 100.128 244.772 100.53 244.772 101.031C244.772 101.526 244.935 101.92 245.26 102.213C245.579 102.519 245.983 102.672 246.471 102.672C246.702 102.672 246.924 102.631 247.135 102.55C247.347 102.465 247.526 102.349 247.672 102.203C247.985 101.874 248.141 101.464 248.141 100.972C248.141 100.497 247.985 100.108 247.672 99.8054Z" fill="#171717"/>
<defs>
<filter id="filter0_d_106_135" x="228.502" y="124.3" width="24.6104" height="25.1605" filterUnits="userSpaceOnUse" color-interpolation-filters="sRGB">
<feFlood flood-opacity="0" result="BackgroundImageFix"/>
<feColorMatrix in="SourceAlpha" type="matrix" values="0 0 0 0 0 0 0 0 0 0 0 0 0 0 0 0 0 0 127 0" result="hardAlpha"/>
<feOffset dy="2.99245"/>
<feGaussianBlur stdDeviation="2.99245"/>
<feColorMatrix type="matrix" values="0 0 0 0 0.321569 0 0 0 0 0.262745 0 0 0 0 0.666667 0 0 0 0.32 0"/>
<feBlend mode="normal" in2="BackgroundImageFix" result="effect1_dropShadow_106_135"/>
<feBlend mode="normal" in="SourceGraphic" in2="effect1_dropShadow_106_135" result="shape"/>
</filter>
</defs>
</svg>
