<svg width="18" height="21" viewBox="0 0 18 21" fill="none" xmlns="http://www.w3.org/2000/svg">
<path fill-rule="evenodd" clip-rule="evenodd" d="M-0.000610352 7.08755L7.6067 11.5133C7.68861 11.5609 7.77451 11.5954 7.86194 11.6172V20.2007L0.541944 15.8355C0.205654 15.635 -0.000610352 15.2704 -0.000610352 14.8767L-0.000610352 7.08755Z" fill="#0A1739" fill-opacity="0.2"/>
<path fill-rule="evenodd" clip-rule="evenodd" d="M17.6904 6.97147V14.8782C17.6904 15.272 17.4842 15.6365 17.1479 15.837L9.82788 20.2022V11.5436C9.84572 11.5346 9.86339 11.525 9.88089 11.5148L17.6904 6.97147Z" fill="#0A1739" fill-opacity="0.2"/>
<path fill-rule="evenodd" clip-rule="evenodd" d="M0.238647 4.94223C0.331568 4.82399 0.448851 4.72406 0.585588 4.65067L8.32529 0.496782C8.6502 0.322403 9.03993 0.322403 9.36484 0.496782L17.1045 4.65067C17.2099 4.70724 17.3038 4.77959 17.3838 4.86393L8.89807 9.80069C8.84227 9.83315 8.79083 9.87029 8.74395 9.91134C8.69706 9.87029 8.64562 9.83315 8.58982 9.80069L0.238647 4.94223Z" fill="#0A1739" fill-opacity="0.2"/>
</svg>
