<svg width="21" height="21" viewBox="0 0 21 21" fill="none" xmlns="http://www.w3.org/2000/svg">
<path fill-rule="evenodd" clip-rule="evenodd" d="M6.91006 0.366028C6.42275 0.366028 6.02771 0.761071 6.02771 1.24838V19.3197C6.02771 19.807 6.42275 20.2021 6.91006 20.2021H7.47901C7.96632 20.2021 8.36136 19.807 8.36136 19.3197V1.24838C8.36136 0.761071 7.96632 0.366028 7.47901 0.366028H6.91006ZM1.07596 0.366058C0.588647 0.366058 0.193604 0.761101 0.193604 1.24841V19.3198C0.193604 19.8071 0.588646 20.2021 1.07596 20.2021H2.81173C3.29904 20.2021 3.69408 19.8071 3.69408 19.3198V1.24841C3.69408 0.761101 3.29904 0.366058 2.81173 0.366058H1.07596Z" fill="#51459E"/>
<rect opacity="0.3" width="3.27394" height="19.7621" rx="0.882353" transform="matrix(0.944749 -0.327795 0.323353 0.946278 10.531 1.43967)" fill="#51459E"/>
</svg>
