<svg width="20" height="21" viewBox="0 0 20 21" fill="none" xmlns="http://www.w3.org/2000/svg">
<path opacity="0.3" fill-rule="evenodd" clip-rule="evenodd" d="M12.7095 8.40375C12.1876 8.92964 12.1876 9.78227 12.7095 10.3082L14.742 12.3562C15.2638 12.8821 16.11 12.8821 16.6319 12.3562L18.6644 10.3081C19.1863 9.78226 19.1863 8.92964 18.6644 8.40375L16.6319 6.35569C16.11 5.8298 15.2638 5.8298 14.742 6.35569L12.7095 8.40375ZM1.61529 8.40375C1.0934 8.92964 1.09341 9.78227 1.61529 10.3082L3.64779 12.3562C4.16968 12.8821 5.01583 12.8821 5.53771 12.3562L7.57021 10.3081C8.0921 9.78226 8.0921 8.92964 7.57021 8.40375L5.53771 6.35569C5.01583 5.8298 4.16968 5.8298 3.64779 6.35569L1.61529 8.40375Z" fill="#51459E"/>
<path fill-rule="evenodd" clip-rule="evenodd" d="M7.16254 2.81306C6.64065 3.33894 6.64065 4.19157 7.16254 4.71745L9.19503 6.7655C9.71692 7.29138 10.5631 7.29138 11.085 6.7655L13.1174 4.71745C13.6393 4.19157 13.6393 3.33894 13.1174 2.81306L11.085 0.765018C10.5631 0.239135 9.71692 0.239135 9.19503 0.765018L7.16254 2.81306ZM7.16253 13.9919C6.64065 14.5178 6.64065 15.3704 7.16254 15.8963L9.19502 17.9443C9.7169 18.4702 10.5631 18.4702 11.0849 17.9443L13.1174 15.8963C13.6393 15.3704 13.6393 14.5178 13.1174 13.9919L11.0849 11.9439C10.5631 11.418 9.7169 11.418 9.19501 11.9439L7.16253 13.9919Z" fill="#51459E"/>
</svg>
