<svg width="21" height="21" viewBox="0 0 21 21" fill="none" xmlns="http://www.w3.org/2000/svg">
<rect opacity="0.3" x="0.341553" y="0.366119" width="10.5011" height="19.8355" fill="#51459E"/>
<path fill-rule="evenodd" clip-rule="evenodd" d="M17.8433 2.70019H14.3429C14.3429 2.70019 13.1761 2.5 13.1761 1.5334C13.1761 0.566798 14.3429 0.366608 14.3429 0.366608H20.1769V6.20057C20.1769 6.20057 20.1769 7.36737 19.0101 7.36737C17.8433 7.36737 17.8433 6.20057 17.8433 6.20057V2.70019ZM17.8432 13.3957V17.4795H14.3429C14.3429 17.4795 13.1761 17.4795 13.1761 18.8407C13.1761 20.202 14.3429 20.202 14.3429 20.202H20.1768V13.3957C20.1768 13.3957 19.9766 12.0345 19.01 12.0345C18.0434 12.0345 17.8432 13.3957 17.8432 13.3957ZM6.17546 17.4798H2.67509V13.396C2.67509 13.396 2.67509 12.0347 1.50829 12.0347C0.3415 12.0347 0.3415 13.396 0.3415 13.396V20.2023H6.17546C6.17546 20.2023 7.34226 19.9687 7.34226 18.841C7.34226 17.7133 6.17546 17.4798 6.17546 17.4798ZM2.67502 6.20079V2.70042H6.1754C6.1754 2.70042 7.34219 2.70042 7.34219 1.53362C7.34219 0.36683 6.1754 0.36683 6.1754 0.36683H0.341431V6.20079C0.341431 6.20079 0.541621 7.36759 1.50822 7.36759C2.47483 7.36759 2.67502 6.20079 2.67502 6.20079Z" fill="#51459E"/>
</svg>
