<svg width="45" height="45" viewBox="0 0 45 45" fill="none" xmlns="http://www.w3.org/2000/svg">
<path opacity="0.3" d="M8.20728 34.6817C10.5215 33.0655 12.8173 31.8257 15.0948 30.9625C17.3723 30.0992 19.815 29.6676 22.4231 29.6676C25.0312 29.6676 27.4831 30.0992 29.779 30.9625C32.0748 31.8257 34.3798 33.0655 36.694 34.6817C38.3103 32.6981 39.4582 30.6962 40.1378 28.6758C40.8174 26.6555 41.1572 24.5249 41.1572 22.2842C41.1572 16.9579 39.3664 12.5039 35.7849 8.92241C32.2034 5.3409 27.7495 3.55015 22.4231 3.55015C17.0968 3.55015 12.6428 5.3409 9.06133 8.92241C5.47982 12.5039 3.68907 16.9579 3.68907 22.2842C3.68907 24.5249 4.03803 26.6555 4.73597 28.6758C5.4339 30.6962 6.59101 32.6981 8.20728 34.6817ZM22.4231 23.9372C20.2926 23.9372 18.5018 23.2117 17.0508 21.7607C15.5999 20.3098 14.8744 18.519 14.8744 16.3885C14.8744 14.2579 15.5999 12.4672 17.0508 11.0162C18.5018 9.56525 20.2926 8.83976 22.4231 8.83976C24.5537 8.83976 26.3444 9.56525 27.7954 11.0162C29.2463 12.4672 29.9718 14.2579 29.9718 16.3885C29.9718 18.519 29.2463 20.3098 27.7954 21.7607C26.3444 23.2117 24.5537 23.9372 22.4231 23.9372ZM22.4231 44.3243C19.411 44.3243 16.5641 43.7457 13.8826 42.5886C11.2011 41.4315 8.85929 39.852 6.85732 37.85C4.85535 35.848 3.27581 33.5063 2.11871 30.8247C0.961608 28.1432 0.383057 25.2963 0.383057 22.2842C0.383057 19.2353 0.961608 16.3793 2.11871 13.7161C3.27581 11.053 4.85535 8.72038 6.85732 6.71841C8.85929 4.71644 11.2011 3.1369 13.8826 1.97979C16.5641 0.822692 19.411 0.244141 22.4231 0.244141C25.472 0.244141 28.328 0.822692 30.9912 1.97979C33.6544 3.1369 35.9869 4.71644 37.9889 6.71841C39.9909 8.72038 41.5704 11.053 42.7275 13.7161C43.8846 16.3793 44.4632 19.2353 44.4632 22.2842C44.4632 25.2963 43.8846 28.1432 42.7275 30.8247C41.5704 33.5063 39.9909 35.848 37.9889 37.85C35.9869 39.852 33.6544 41.4315 30.9912 42.5886C28.328 43.7457 25.472 44.3243 22.4231 44.3243ZM22.4231 41.0182C24.4435 41.0182 26.4179 40.7244 28.3464 40.1366C30.2749 39.5489 32.1758 38.5204 34.0492 37.051C32.1758 35.7286 30.2657 34.7185 28.3188 34.0205C26.372 33.3226 24.4067 32.9736 22.4231 32.9736C20.4395 32.9736 18.4743 33.3226 16.5274 34.0205C14.5805 34.7185 12.6704 35.7286 10.797 37.051C12.6704 38.5204 14.5713 39.5489 16.4998 40.1366C18.4284 40.7244 20.4028 41.0182 22.4231 41.0182ZM22.4231 20.6312C23.6721 20.6312 24.6914 20.2363 25.4812 19.4465C26.2709 18.6568 26.6658 17.6374 26.6658 16.3885C26.6658 15.1395 26.2709 14.1202 25.4812 13.3304C24.6914 12.5407 23.6721 12.1458 22.4231 12.1458C21.1742 12.1458 20.1548 12.5407 19.3651 13.3304C18.5753 14.1202 18.1804 15.1395 18.1804 16.3885C18.1804 17.6374 18.5753 18.6568 19.3651 19.4465C20.1548 20.2363 21.1742 20.6312 22.4231 20.6312Z" fill="black"/>
</svg>
